<svg width="79" height="17" viewBox="0 0 79 17" fill="none" xmlns="http://www.w3.org/2000/svg">
<rect x="0.625977" y="1.4032" width="30.9871" height="15" fill="white"/>
<path d="M8.50397 16.6152L0.261974 16.6152L0.261977 0.729197L8.50398 0.729199L8.50397 16.6152ZM5.95598 7.8272C6.02531 7.93987 6.10764 8.00053 6.20298 8.0092C6.29831 8.0092 6.35464 7.9962 6.37198 7.9702C6.40664 7.93553 6.45431 7.83153 6.51498 7.6582C6.57564 7.4762 6.57131 7.29853 6.50198 7.1252C6.44998 7.02987 6.35464 6.90853 6.21598 6.7612C6.08598 6.6052 5.93864 6.45353 5.77398 6.3062C5.60931 6.1502 5.46198 6.01587 5.33198 5.9032C5.20198 5.79053 5.12398 5.7212 5.09798 5.6952C5.01998 5.6692 4.97664 5.6432 4.96798 5.6172C4.96798 5.58253 4.93764 5.5782 4.87698 5.6042C4.81631 5.63887 4.72098 5.6692 4.59098 5.6952C4.46098 5.7212 4.36131 5.7342 4.29198 5.7342C4.23998 5.7342 4.14464 5.7472 4.00598 5.7732C3.86731 5.7992 3.70698 5.85987 3.52498 5.9552C3.34298 6.04187 3.15231 6.1762 2.95298 6.3582C2.76231 6.53153 2.61064 6.76553 2.49798 7.0602C2.28998 7.6322 2.17731 8.23453 2.15998 8.8672C2.14264 9.49986 2.29864 10.1022 2.62798 10.6742C2.94864 11.2549 3.34731 11.6622 3.82397 11.8962C4.30931 12.1215 4.83798 12.1519 5.40998 11.9872C5.67864 11.8919 5.89531 11.7445 6.05998 11.5452C6.23331 11.3459 6.36331 11.1335 6.44998 10.9082C6.54531 10.6742 6.60598 10.4619 6.63198 10.2712C6.65798 10.0805 6.68398 9.95053 6.70998 9.8812C6.71864 9.7512 6.69698 9.6212 6.64498 9.4912C6.59298 9.3612 6.53664 9.2962 6.47598 9.2962C6.39798 9.2962 6.31998 9.31353 6.24198 9.3482C6.16398 9.3742 6.11631 9.43053 6.09898 9.5172C6.07298 9.53453 6.05131 9.59087 6.03398 9.6862C6.02531 9.78153 6.00798 9.88553 5.98198 9.9982C5.96464 10.1022 5.94298 10.2062 5.91698 10.3102C5.89098 10.4055 5.87364 10.4749 5.86498 10.5182C5.83031 10.5702 5.76964 10.6525 5.68298 10.7652C5.60498 10.8692 5.50098 10.9732 5.37098 11.0772C5.24098 11.1725 5.08498 11.2592 4.90298 11.3372C4.72964 11.4065 4.55198 11.4239 4.36998 11.3892C3.98864 11.3285 3.61164 11.0685 3.23898 10.6092C2.86631 10.1499 2.66698 9.56053 2.64098 8.8412C2.63231 8.48586 2.67998 8.1782 2.78398 7.9182C2.88798 7.6582 3.00931 7.4372 3.14798 7.2552C3.29531 7.0732 3.44264 6.9302 3.58998 6.8262C3.73731 6.7222 3.84564 6.65287 3.91498 6.6182C3.98431 6.5922 4.09698 6.58353 4.25298 6.5922C4.40898 6.5922 4.57364 6.60953 4.74698 6.6442C4.92898 6.6702 5.08931 6.7092 5.22798 6.7612C5.36664 6.80453 5.45331 6.83053 5.48798 6.8392C5.54864 6.89987 5.60498 6.97353 5.65698 7.0602C5.70898 7.14687 5.74364 7.2292 5.76098 7.3072C5.79564 7.3592 5.82164 7.4502 5.83898 7.5802C5.86498 7.70153 5.90398 7.78387 5.95598 7.8272ZM6.50198 8.1262C6.54531 8.14353 6.59731 8.1522 6.65798 8.1522C6.76198 8.1522 6.82264 8.11753 6.83998 8.0482C6.87464 7.96153 6.89198 7.7882 6.89198 7.5282C6.89198 7.25953 6.80964 6.97353 6.64498 6.6702C6.46298 6.3582 6.25498 6.0982 6.02098 5.8902C5.78698 5.67353 5.59198 5.5262 5.43598 5.4482C5.36664 5.41353 5.29298 5.3832 5.21498 5.3572C5.13698 5.32253 5.07198 5.2922 5.01998 5.2662C4.95064 5.23153 4.87698 5.2142 4.79898 5.2142C5.02431 5.30953 5.24964 5.41787 5.47498 5.5392C5.64831 5.6432 5.82598 5.77753 6.00798 5.9422C6.18998 6.10687 6.33731 6.28453 6.44998 6.4752C6.65798 6.88253 6.77931 7.19887 6.81398 7.4242C6.84864 7.64087 6.84431 7.7882 6.80098 7.8662C6.70564 7.98753 6.64064 8.05687 6.60598 8.0742C6.57131 8.10887 6.53664 8.1262 6.50198 8.1262ZM3.17398 8.0742C3.07864 8.35153 3.04398 8.6202 3.06998 8.8802C3.09598 9.1402 3.13498 9.36553 3.18698 9.5562C3.24764 9.7382 3.30831 9.8942 3.36898 10.0242C3.42964 10.1542 3.45998 10.2235 3.45998 10.2322C3.45998 10.2669 3.40364 10.1325 3.29098 9.8292C3.18698 9.52587 3.15231 9.07087 3.18698 8.4642C3.20431 8.16087 3.26931 7.9052 3.38198 7.6972C3.50331 7.4892 3.62898 7.32887 3.75898 7.2162C3.93231 7.0602 4.10998 6.9432 4.29198 6.8652C4.27464 6.84787 4.22264 6.84787 4.13598 6.8652C4.05798 6.88253 3.95831 6.93887 3.83698 7.0342C3.71564 7.12087 3.58998 7.25087 3.45998 7.4242C3.33864 7.58887 3.24331 7.80553 3.17398 8.0742ZM6.94398 9.5822C6.94398 9.8162 6.91798 10.0589 6.86598 10.3102C6.83131 10.5182 6.77064 10.7435 6.68398 10.9862C6.59731 11.2289 6.46298 11.4325 6.28098 11.5972C6.11631 11.7705 5.94731 11.9135 5.77398 12.0262C5.60931 12.1302 5.46197 12.2212 5.33198 12.2992C5.16731 12.3685 5.01564 12.4205 4.87698 12.4552C5.11964 12.3859 5.35364 12.2949 5.57898 12.1822C5.77831 12.0955 5.96898 11.9785 6.15098 11.8312C6.33298 11.6752 6.48464 11.4715 6.60598 11.2202C6.73598 11.0035 6.81831 10.7955 6.85298 10.5962C6.88764 10.3882 6.91798 10.2105 6.94398 10.0632C6.95264 9.89853 6.95264 9.7382 6.94398 9.5822ZM16.1178 16.6152L7.91481 16.6152L7.91481 0.729199L16.1178 0.7292L16.1178 16.6152ZM9.90381 12.0522C9.95581 12.0695 10.0121 12.0999 10.0728 12.1432C10.1421 12.1865 10.2115 12.1475 10.2808 12.0262C10.3501 11.9222 10.4065 11.7922 10.4498 11.6362C10.5018 11.4715 10.5321 11.3545 10.5408 11.2852C10.5668 11.1985 10.5668 11.1249 10.5408 11.0642C10.5235 10.9949 10.5495 10.9515 10.6188 10.9342C10.6968 10.9169 10.7531 10.9472 10.7878 11.0252C10.8311 11.1032 10.9048 11.1422 11.0088 11.1422C11.1041 11.1422 11.2125 11.1205 11.3338 11.0772C11.4551 11.0252 11.6545 10.9992 11.9318 10.9992C12.2178 10.9992 12.4215 11.0122 12.5428 11.0382C12.6728 11.0642 12.7898 11.0469 12.8938 10.9862C12.9978 10.9342 13.0975 10.8735 13.1928 10.8042C13.2968 10.7349 13.3705 10.7175 13.4138 10.7522C13.4225 10.7609 13.4485 10.8042 13.4918 10.8822C13.5438 10.9515 13.5871 11.0252 13.6218 11.1032C13.6651 11.1725 13.7041 11.2505 13.7388 11.3372C13.7821 11.4239 13.8038 11.4889 13.8038 11.5322C13.8298 11.6189 13.8688 11.7315 13.9208 11.8702C13.9728 12.0089 14.0811 12.0869 14.2458 12.1042C14.4191 12.1389 14.5318 12.1302 14.5838 12.0782C14.6445 12.0262 14.6835 11.9309 14.7008 11.7922C14.7441 11.6795 14.7095 11.5755 14.5968 11.4802C14.4841 11.3762 14.4061 11.2679 14.3628 11.1552C14.3368 11.1032 14.2805 10.9732 14.1938 10.7652C14.1158 10.5572 14.0248 10.3319 13.9208 10.0892C13.8168 9.83787 13.7171 9.59087 13.6218 9.3482C13.5351 9.09687 13.4658 8.9062 13.4138 8.7762C13.3705 8.62887 13.3011 8.44687 13.2058 8.2302C13.1191 8.00487 13.0281 7.7882 12.9328 7.5802C12.8461 7.36353 12.7638 7.16853 12.6858 6.9952C12.6165 6.8132 12.5731 6.6962 12.5558 6.6442C12.5298 6.60087 12.5125 6.5272 12.5038 6.4232C12.4951 6.3192 12.4778 6.21087 12.4518 6.0982C12.4258 5.98553 12.3955 5.8772 12.3608 5.7732C12.3348 5.6692 12.2958 5.5912 12.2438 5.5392C12.1918 5.49587 12.1355 5.49587 12.0748 5.5392C12.0141 5.58253 11.9578 5.63887 11.9058 5.7082C11.8538 5.76887 11.8061 5.8382 11.7628 5.9162C11.7281 5.98553 11.7021 6.0462 11.6848 6.0982C11.6761 6.2022 11.6891 6.2932 11.7238 6.3712C11.7585 6.4492 11.7758 6.51853 11.7758 6.5792C11.7758 6.6312 11.7498 6.6962 11.6978 6.7742C11.6458 6.84353 11.6025 6.92587 11.5678 7.0212C11.5331 7.0992 11.5071 7.1772 11.4898 7.2552C11.4811 7.32453 11.4768 7.38953 11.4768 7.4502C11.4768 7.51953 11.3988 7.70587 11.2428 8.0092C11.0868 8.31253 10.9525 8.62887 10.8398 8.9582C10.7358 9.26153 10.6795 9.46953 10.6708 9.5822C10.6621 9.69487 10.6448 9.79453 10.6188 9.8812C10.6101 9.95053 10.5798 10.0589 10.5278 10.2062C10.4845 10.3535 10.4238 10.4879 10.3458 10.6092C10.3111 10.6959 10.2505 10.8085 10.1638 10.9472C10.0858 11.0859 10.0121 11.2375 9.94281 11.4022C9.87348 11.5582 9.83014 11.7012 9.81281 11.8312C9.79548 11.9612 9.82581 12.0349 9.90381 12.0522ZM13.1408 9.3482C13.2188 9.49553 13.2665 9.6472 13.2838 9.8032C13.3098 9.95053 13.3055 10.0849 13.2708 10.2062C13.2621 10.2582 13.2275 10.2885 13.1668 10.2972C13.1061 10.3059 13.0281 10.3015 12.9328 10.2842C12.8461 10.2669 12.7508 10.2452 12.6468 10.2192C12.5515 10.1932 12.4735 10.1802 12.4128 10.1802C12.1528 10.1802 11.9751 10.1585 11.8798 10.1152C11.8451 10.0805 11.7888 10.0849 11.7108 10.1282C11.6328 10.1629 11.5115 10.2062 11.3468 10.2582C11.1735 10.3189 11.0565 10.3449 10.9958 10.3362C10.9351 10.3189 10.8745 10.2972 10.8138 10.2712C10.7791 10.2625 10.7748 10.2279 10.8008 10.1672C10.8268 10.0979 10.8658 10.0242 10.9178 9.9462C10.9698 9.8682 11.0218 9.78587 11.0738 9.6992C11.1258 9.60387 11.1605 9.5172 11.1778 9.4392C11.1951 9.3612 11.2341 9.23553 11.2948 9.0622C11.3641 8.8802 11.4335 8.6982 11.5028 8.5162C11.5808 8.32553 11.6458 8.16087 11.6978 8.0222C11.7498 7.87487 11.7758 7.79687 11.7758 7.7882C11.7758 7.75353 11.7498 7.7232 11.6978 7.6972C11.6545 7.66253 11.6111 7.6322 11.5678 7.6062C11.5418 7.59753 11.5591 7.56287 11.6198 7.5022C11.6805 7.44153 11.7368 7.37653 11.7888 7.3072C11.8495 7.22053 11.8885 7.1512 11.9058 7.0992C11.9231 7.0472 11.9708 7.0342 12.0488 7.0602C12.0835 7.07753 12.1528 7.1902 12.2568 7.3982C12.3608 7.6062 12.4735 7.84453 12.5948 8.1132C12.7248 8.38187 12.8418 8.64187 12.9458 8.8932C13.0498 9.13587 13.1148 9.28753 13.1408 9.3482ZM11.5418 9.5172L11.6328 9.3092C11.6675 9.23987 11.6978 9.17487 11.7238 9.1142C11.7498 9.05353 11.7671 9.00587 11.7758 8.9712C11.8278 8.90187 11.8581 8.8152 11.8668 8.7112C11.8755 8.64187 11.8928 8.56387 11.9188 8.4772C11.8755 8.51187 11.8278 8.58987 11.7758 8.7112C11.7325 8.82387 11.6978 8.9452 11.6718 9.0752C11.6198 9.2312 11.5765 9.37853 11.5418 9.5172ZM12.2048 9.9852C12.1875 9.92453 12.1615 9.85953 12.1268 9.7902C12.0921 9.72087 12.0445 9.69487 11.9838 9.7122C11.9405 9.72953 11.8885 9.7382 11.8278 9.7382L11.7238 9.7382L12.2048 9.9852ZM10.9958 11.3892L12.8028 11.3242C12.6988 11.2982 12.5515 11.2895 12.3608 11.2982C12.1701 11.2982 11.9708 11.3069 11.7628 11.3242C11.5115 11.3329 11.2558 11.3545 10.9958 11.3892ZM10.9048 11.4932C10.8701 11.5799 10.8441 11.6535 10.8268 11.7142C10.7661 11.8615 10.7141 11.9612 10.6708 12.0132C10.6361 12.0392 10.6058 12.0652 10.5798 12.0912C10.5538 12.1085 10.5365 12.1345 10.5278 12.1692C10.5018 12.1952 10.4888 12.2212 10.4888 12.2472C10.6015 12.1519 10.6838 12.0695 10.7358 12.0002C10.8658 11.8182 10.9221 11.6492 10.9048 11.4932ZM14.7658 10.7652C14.7918 10.7999 14.7831 10.7565 14.7398 10.6352C14.6965 10.5139 14.6315 10.3492 14.5448 10.1412C14.4668 9.9332 14.3671 9.68187 14.2458 9.3872C14.1331 9.08387 14.0161 8.7762 13.8948 8.4642C13.6001 7.72753 13.2535 6.8912 12.8548 5.9552C13.1928 6.8392 13.4961 7.62787 13.7648 8.3212C13.8948 8.6332 14.0161 8.9322 14.1288 9.2182C14.2415 9.5042 14.3411 9.75987 14.4278 9.9852C14.5145 10.2019 14.5838 10.3839 14.6358 10.5312C14.6878 10.6785 14.7311 10.7565 14.7658 10.7652ZM23.7637 16.6152L15.5477 16.6152L15.5477 0.7292L23.7637 0.729201L23.7637 16.6152ZM17.6537 5.5522C17.5844 5.59553 17.5367 5.7082 17.5107 5.8902C17.4847 6.0722 17.4717 6.2282 17.4717 6.3582C17.4717 6.41887 17.4717 6.62253 17.4717 6.9692C17.4717 7.3072 17.4761 7.6712 17.4847 8.0612C17.4934 8.4512 17.4977 8.8152 17.4977 9.1532C17.4977 9.48253 17.4977 9.6732 17.4977 9.7252C17.4977 9.76853 17.4934 9.8812 17.4847 10.0632C17.4761 10.2452 17.4717 10.4402 17.4717 10.6482C17.4717 10.8562 17.4761 11.0555 17.4847 11.2462C17.4934 11.4369 17.5151 11.5669 17.5497 11.6362C17.6104 11.7489 17.6407 11.8095 17.6407 11.8182C17.6407 11.8269 17.6927 11.8485 17.7967 11.8832C17.9007 11.9092 18.0004 11.8832 18.0957 11.8052C18.1997 11.7185 18.2604 11.6189 18.2777 11.5062C18.2864 11.4022 18.2561 11.2765 18.1867 11.1292C18.1261 10.9819 18.0957 10.8735 18.0957 10.8042C18.0957 10.7522 18.1001 10.6742 18.1087 10.5702C18.1261 10.4662 18.1391 10.3579 18.1477 10.2452C18.1564 10.1239 18.1651 10.0155 18.1737 9.9202C18.1824 9.82487 18.1867 9.75553 18.1867 9.7122C18.1694 9.62553 18.1564 9.5172 18.1477 9.3872C18.1391 9.2572 18.1607 9.17053 18.2127 9.1272C18.2647 9.1012 18.4034 9.0882 18.6287 9.0882C18.8627 9.0882 19.0317 9.07087 19.1357 9.0362C19.2657 9.01887 19.3827 8.9842 19.4867 8.9322C19.5994 8.8802 19.7207 8.88453 19.8507 8.9452C19.9114 8.97987 19.9807 9.0752 20.0587 9.2312C20.1367 9.37853 20.2147 9.54753 20.2927 9.7382C20.3794 9.92887 20.4617 10.1152 20.5397 10.2972C20.6177 10.4792 20.6784 10.6222 20.7217 10.7262C20.7651 10.8389 20.8171 10.9732 20.8777 11.1292C20.9384 11.2765 21.0077 11.4152 21.0857 11.5452C21.1637 11.6752 21.2417 11.7835 21.3197 11.8702C21.4064 11.9482 21.4887 11.9655 21.5667 11.9222C21.7314 11.8442 21.8267 11.7662 21.8527 11.6882C21.8787 11.6015 21.8744 11.4932 21.8397 11.3632C21.8224 11.3199 21.7747 11.2462 21.6967 11.1422C21.6274 11.0295 21.5451 10.9082 21.4497 10.7782C21.3544 10.6395 21.2591 10.5052 21.1637 10.3752C21.0771 10.2365 21.0121 10.1022 20.9687 9.9722C20.7954 9.49553 20.7087 9.22253 20.7087 9.1532C20.7087 9.1012 20.7001 9.07087 20.6827 9.0622C20.6741 9.04487 20.6871 9.0232 20.7217 8.9972C20.7304 8.9712 20.7954 8.91487 20.9167 8.8282C21.0467 8.73287 21.1767 8.60287 21.3067 8.4382C21.4454 8.26487 21.5667 8.0872 21.6707 7.9052C21.7834 7.71453 21.8311 7.52387 21.8137 7.3332C21.8051 6.9692 21.7271 6.66587 21.5797 6.4232C21.4411 6.18053 21.2981 6.00287 21.1507 5.8902C21.0207 5.7602 20.9037 5.6692 20.7997 5.6172C20.7044 5.55653 20.6134 5.52187 20.5267 5.5132C20.4574 5.47853 20.4314 5.45687 20.4487 5.4482C20.4661 5.43087 20.4401 5.4352 20.3707 5.4612C20.3447 5.4872 20.2451 5.50453 20.0717 5.5132C19.9071 5.5132 19.7294 5.5132 19.5387 5.5132C19.3567 5.5132 19.1661 5.51753 18.9667 5.5262C18.7761 5.5262 18.6461 5.5262 18.5767 5.5262C18.4207 5.5262 18.2344 5.5262 18.0177 5.5262C17.8097 5.5262 17.6884 5.53487 17.6537 5.5522ZM20.2147 6.2802C20.3881 6.2802 20.5701 6.33653 20.7607 6.4492C20.8647 6.50987 20.9471 6.60953 21.0077 6.7482C21.0684 6.8782 21.1074 7.0212 21.1247 7.1772C21.1594 7.3332 21.1334 7.49354 21.0467 7.6582C20.9601 7.82287 20.8561 7.9572 20.7347 8.0612C20.6221 8.1652 20.4747 8.23453 20.2927 8.2692C20.1194 8.2952 19.9331 8.30387 19.7337 8.2952C19.6471 8.2952 19.5387 8.2822 19.4087 8.2562C19.2874 8.2302 19.1704 8.20853 19.0577 8.1912C18.9451 8.17387 18.8454 8.15653 18.7587 8.1392C18.6807 8.12187 18.6287 8.1132 18.6027 8.1132C18.5854 8.1132 18.5074 8.14353 18.3687 8.2042C18.2301 8.26487 18.1434 8.2692 18.1087 8.2172C18.0741 8.18253 18.0741 8.10887 18.1087 7.9962C18.1434 7.88353 18.1737 7.80553 18.1997 7.7622C18.2344 7.7102 18.2431 7.6712 18.2257 7.6452C18.2171 7.6192 18.2084 7.56287 18.1997 7.4762C18.1997 7.43287 18.1911 7.36787 18.1737 7.2812C18.1651 7.18587 18.1564 7.09053 18.1477 6.9952C18.1391 6.8912 18.1304 6.8002 18.1217 6.7222C18.1131 6.6442 18.1087 6.60087 18.1087 6.5922C18.1087 6.49687 18.1174 6.42753 18.1347 6.3842C18.1781 6.3322 18.2691 6.3322 18.4077 6.3842C18.4684 6.41887 18.5117 6.43187 18.5377 6.4232C18.5724 6.40587 18.6331 6.3972 18.7197 6.3972C18.7891 6.3972 18.8627 6.39287 18.9407 6.3842C19.0274 6.36687 19.1097 6.3582 19.1877 6.3582C19.2571 6.3582 19.3827 6.36687 19.5647 6.3842C19.7554 6.39287 19.8811 6.3842 19.9417 6.3582C19.9677 6.32353 19.9981 6.3062 20.0327 6.3062C20.0674 6.29753 20.1281 6.28887 20.2147 6.2802ZM18.4077 6.7742C18.3731 6.80887 18.3774 6.86087 18.4207 6.9302C18.4727 6.99087 18.4987 7.04287 18.4987 7.0862C18.4987 7.12087 18.5247 7.1642 18.5767 7.2162L18.6027 7.2422C18.5681 7.1902 18.5421 7.13387 18.5247 7.0732C18.4641 6.9692 18.4641 6.89553 18.5247 6.8522C18.5767 6.83487 18.6634 6.8262 18.7847 6.8262L18.9667 6.8262L18.6807 6.7742C18.6114 6.75687 18.5464 6.7482 18.4857 6.7482C18.4337 6.7482 18.4077 6.75687 18.4077 6.7742ZM18.4987 7.4762C18.4987 7.5282 18.4814 7.5802 18.4467 7.6322C18.4381 7.66687 18.4337 7.69287 18.4337 7.7102L18.6027 7.8272L19.2917 7.8662C19.1791 7.85753 19.0751 7.83587 18.9797 7.8012C18.9104 7.7752 18.8367 7.7492 18.7587 7.7232C18.6807 7.6972 18.6287 7.66687 18.6027 7.6322C18.5507 7.5542 18.5247 7.5152 18.5247 7.5152L18.4987 7.4762ZM20.6307 5.1362C20.8561 5.2662 21.0641 5.3962 21.2547 5.5262C21.4194 5.6562 21.5711 5.80354 21.7097 5.9682C21.8571 6.1242 21.9524 6.30187 21.9957 6.5012C22.0737 6.8912 22.0867 7.2942 22.0347 7.7102C21.9827 8.11754 21.8701 8.39487 21.6967 8.5422C21.5321 8.6722 21.3891 8.79354 21.2677 8.9062C21.1551 9.01887 21.0987 9.09254 21.0987 9.1272C21.0987 9.16187 21.1334 9.2572 21.2027 9.4132C21.2721 9.5692 21.3631 9.74254 21.4757 9.9332C21.5884 10.1499 21.7184 10.3925 21.8657 10.6612C21.7531 10.4012 21.6621 10.1672 21.5927 9.9592C21.5147 9.76854 21.4541 9.5952 21.4107 9.4392C21.3674 9.27454 21.3501 9.17054 21.3587 9.1272C21.3674 9.1012 21.4194 9.0362 21.5147 8.9322C21.6101 8.81954 21.7097 8.6852 21.8137 8.5292C21.9264 8.3732 22.0174 8.19554 22.0867 7.9962C22.1647 7.7882 22.1994 7.5802 22.1907 7.3722C22.1647 7.15553 22.1431 6.9562 22.1257 6.7742C22.1171 6.5922 22.0651 6.41453 21.9697 6.2412C21.8831 6.0592 21.7357 5.88153 21.5277 5.7082C21.3197 5.53487 21.0207 5.3442 20.6307 5.1362ZM21.7617 12.0782C21.7444 12.1215 21.7791 12.1302 21.8657 12.1042C21.9524 12.0695 22.0347 11.9829 22.1127 11.8442C22.1734 11.7315 22.2037 11.6189 22.2037 11.5062C22.2037 11.4455 22.1994 11.3935 22.1907 11.3502L22.1387 11.6362C22.1214 11.7055 22.0997 11.7705 22.0737 11.8312C22.0564 11.8919 22.0261 11.9395 21.9827 11.9742C21.9047 12.0175 21.8527 12.0392 21.8267 12.0392C21.8094 12.0392 21.7877 12.0522 21.7617 12.0782ZM18.3557 9.5822C18.3557 9.6082 18.3601 9.69487 18.3687 9.8422C18.3861 9.98953 18.3991 10.1585 18.4077 10.3492C18.4251 10.5312 18.4424 10.7045 18.4597 10.8692C18.4771 11.0339 18.4857 11.1465 18.4857 11.2072C18.4944 11.3372 18.4944 11.4325 18.4857 11.4932C18.4857 11.5539 18.4554 11.6189 18.3947 11.6882C18.3254 11.7662 18.2907 11.8095 18.2907 11.8182C18.2907 11.8269 18.2647 11.8312 18.2127 11.8312C18.1607 11.8312 18.0914 11.8182 18.0047 11.7922C17.9354 11.7662 17.8877 11.7445 17.8617 11.7272C17.9311 11.7965 17.9961 11.8615 18.0567 11.9222C18.2041 12.0262 18.3037 12.0435 18.3557 11.9742C18.3904 11.9222 18.4251 11.8312 18.4597 11.7012C18.5031 11.5712 18.5377 11.4239 18.5637 11.2592C18.5897 11.0945 18.6157 10.9299 18.6417 10.7652C18.6677 10.6005 18.6807 10.4575 18.6807 10.3362C18.6634 10.2235 18.6591 10.1239 18.6677 10.0372C18.6764 9.94187 18.6807 9.85953 18.6807 9.7902C18.6807 9.7122 18.6937 9.64287 18.7197 9.5822L18.8367 9.6472C18.9667 9.70787 19.0664 9.73387 19.1357 9.7252C19.2224 9.71653 19.2311 9.6732 19.1617 9.5952C19.1011 9.5172 19.0361 9.4782 18.9667 9.4782C18.8714 9.4782 18.7804 9.45653 18.6937 9.4132C18.6157 9.3612 18.5334 9.31787 18.4467 9.2832C18.3774 9.2572 18.3427 9.29187 18.3427 9.3872C18.3514 9.47387 18.3557 9.53887 18.3557 9.5822ZM31.6373 16.6152L23.3953 16.6152L23.3953 0.729201L31.6373 0.729203L31.6373 16.6152Z" fill="black"/>
</svg>
