<svg width="81" height="17" viewBox="0 0 81 17" fill="none" xmlns="http://www.w3.org/2000/svg">
<rect x="0.337891" y="1.38666" width="32.5738" height="15" fill="white"/>
<path d="M8.29389 16.5987H0.0778906V0.712657H8.29389V16.5987ZM6.40889 6.02966C6.32222 6.04699 6.22689 6.11199 6.12289 6.22466C6.02756 6.32866 5.92789 6.45866 5.82389 6.61466C5.72856 6.77066 5.63322 6.93966 5.53789 7.12166C5.44256 7.29499 5.34722 7.43799 5.25189 7.55066C5.16522 7.68066 5.06556 7.84966 4.95289 8.05766C4.84889 8.26566 4.74056 8.47366 4.62789 8.68166C4.51522 8.88099 4.39389 9.07166 4.26389 9.25366C4.14256 9.43566 4.02556 9.56132 3.91289 9.63066C3.79156 9.71732 3.69622 9.72166 3.62689 9.64366C3.55756 9.56566 3.50122 9.46599 3.45789 9.34466C3.41456 9.22332 3.37989 9.10199 3.35389 8.98066C3.33656 8.85066 3.32356 8.77266 3.31489 8.74666C3.28022 8.69466 3.21522 8.58632 3.11989 8.42166C3.02456 8.25699 2.88589 8.09232 2.70389 7.92766C2.61722 7.83232 2.50022 7.68932 2.35289 7.49866C2.20556 7.29932 2.05822 7.09999 1.91089 6.90066C1.76356 6.70132 1.62489 6.53232 1.49489 6.39366C1.37356 6.25499 1.29122 6.21166 1.24789 6.26366C1.19589 6.30699 1.17856 6.37632 1.19589 6.47166C1.21322 6.55832 1.24356 6.65366 1.28689 6.75766C1.33022 6.85299 1.37356 6.94399 1.41689 7.03066C1.46889 7.11732 1.49489 7.17799 1.49489 7.21266C1.49489 7.24732 1.49056 7.31232 1.48189 7.40766C1.47322 7.50299 1.46022 7.61566 1.44289 7.74566C1.42556 7.86699 1.41256 7.98832 1.40389 8.10966C1.39522 8.23099 1.37789 8.32199 1.35189 8.38266C1.33456 8.44332 1.32156 8.63399 1.31289 8.95466C1.30422 9.27532 1.29122 9.62199 1.27389 9.99466C1.26522 10.3587 1.25656 10.6967 1.24789 11.0087C1.24789 11.3207 1.24789 11.4983 1.24789 11.5417C1.23056 11.6283 1.22622 11.6933 1.23489 11.7367C1.25222 11.78 1.36056 11.832 1.55989 11.8927C1.65522 11.9273 1.74189 11.9187 1.81989 11.8667C1.90656 11.806 1.97589 11.728 2.02789 11.6327C2.07989 11.5373 2.12756 11.4463 2.17089 11.3597C2.21422 11.273 2.24022 11.2037 2.24889 11.1517C2.24889 11.117 2.24889 10.9697 2.24889 10.7097C2.25756 10.441 2.25756 10.1593 2.24889 9.86466C2.24889 9.56132 2.24022 9.28832 2.22289 9.04566C2.20556 8.80299 2.18389 8.68166 2.15789 8.68166C2.07989 8.69032 2.01489 8.77266 1.96289 8.92866C1.91089 9.08466 1.85456 9.21899 1.79389 9.33166C1.75922 9.40099 1.74622 9.54832 1.75489 9.77366C1.76356 9.99032 1.76789 10.2243 1.76789 10.4757C1.76789 10.727 1.76789 10.9567 1.76789 11.1647C1.76789 11.3727 1.75056 11.481 1.71589 11.4897C1.69856 11.4983 1.68122 11.364 1.66389 11.0867C1.64656 10.8007 1.62489 10.4843 1.59889 10.1377C1.58156 9.79099 1.56856 9.46166 1.55989 9.14966C1.55989 8.83766 1.55556 8.64266 1.54689 8.56466C1.51222 8.43466 1.49489 8.25699 1.49489 8.03166C1.49489 7.80632 1.50356 7.64599 1.52089 7.55066C1.54689 7.47266 1.59889 7.42499 1.67689 7.40766C1.75489 7.39032 1.83289 7.39899 1.91089 7.43366C1.94556 7.44232 2.00622 7.50732 2.09289 7.62866C2.18822 7.74999 2.28356 7.89299 2.37889 8.05766C2.48289 8.21366 2.58689 8.38266 2.69089 8.56466C2.79489 8.73799 2.89022 8.88099 2.97689 8.99366C3.15022 9.24499 3.31489 9.52232 3.47089 9.82566C3.63556 10.1203 3.76989 10.311 3.87389 10.3977C3.97789 10.4583 4.09056 10.4497 4.21189 10.3717C4.34189 10.285 4.43289 10.246 4.48489 10.2547C4.52822 10.2633 4.53689 10.3283 4.51089 10.4497C4.49356 10.5623 4.50656 10.6187 4.54989 10.6187C4.59322 10.6187 4.62356 10.597 4.64089 10.5537C4.66689 10.5103 4.70156 10.4497 4.74489 10.3717C4.77089 10.337 4.80989 10.285 4.86189 10.2157C4.91389 10.1377 4.97022 10.064 5.03089 9.99466L5.25189 9.70866L4.93989 10.0987L5.48589 9.05866L4.70589 10.2157L5.44689 8.82466L5.32989 8.74666V8.33066C5.32989 8.26132 5.33856 8.17466 5.35589 8.07066C5.38189 7.95799 5.40789 7.88432 5.43389 7.84966C5.46856 7.82366 5.54222 7.73699 5.65489 7.58966C5.76756 7.43366 5.84556 7.35566 5.88889 7.35566C5.94089 7.32966 5.97556 7.35132 5.99289 7.42066C6.01889 7.48132 6.05789 7.57232 6.10989 7.69366C6.15322 7.82366 6.18789 8.06199 6.21389 8.40866C6.24856 8.74666 6.24856 9.13232 6.21389 9.56566C6.21389 9.79966 6.20522 10.0423 6.18789 10.2937C6.17922 10.5363 6.17489 10.7703 6.17489 10.9957C6.17489 11.221 6.17489 11.4117 6.17489 11.5677C6.17489 11.7237 6.18789 11.832 6.21389 11.8927C6.22256 11.962 6.25722 12.0097 6.31789 12.0357C6.38722 12.053 6.44789 12.0617 6.49989 12.0617C6.55189 12.0617 6.60389 12.0617 6.65589 12.0617C6.71656 12.0617 6.75122 12.0703 6.75989 12.0877C6.79456 12.1397 6.81189 12.1787 6.81189 12.2047C6.81189 12.2307 6.83356 12.2263 6.87689 12.1917C6.89422 12.1917 6.95056 12.1353 7.04589 12.0227C7.06322 11.962 7.09789 11.91 7.14989 11.8667C7.13256 11.8753 7.11956 11.897 7.11089 11.9317C7.07622 11.9923 7.05456 12.027 7.04589 12.0357C7.01122 12.053 6.96789 12.0617 6.91589 12.0617H6.87689V11.9707C6.87689 11.9447 6.88989 11.8537 6.91589 11.6977C6.95056 11.5937 6.92456 11.442 6.83789 11.2427C6.75989 11.0433 6.72089 10.8613 6.72089 10.6967C6.72089 10.61 6.72522 10.363 6.73389 9.95566C6.74256 9.53966 6.74689 9.09332 6.74689 8.61666C6.75556 8.13999 6.76422 7.69799 6.77289 7.29066C6.79022 6.87466 6.79889 6.62766 6.79889 6.54966C6.79889 6.41966 6.85089 6.31132 6.95489 6.22466C6.99822 6.18132 7.05022 6.14666 7.11089 6.12066C7.17156 6.07732 7.18022 6.04266 7.13689 6.01666C7.09356 5.99066 7.02856 5.97766 6.94189 5.97766C6.86389 5.97766 6.77289 5.98199 6.66889 5.99066C6.56489 5.99932 6.47822 6.01232 6.40889 6.02966ZM3.87389 8.56466C3.89989 8.58199 3.89556 8.56899 3.86089 8.52566C3.83489 8.47366 3.80889 8.42166 3.78289 8.36966C3.73956 8.30899 3.68756 8.23099 3.62689 8.13566C3.62689 8.20499 3.63989 8.26999 3.66589 8.33066C3.70056 8.48666 3.76989 8.56466 3.87389 8.56466ZM3.86089 8.09666C3.67022 7.80199 3.49256 7.52466 3.32789 7.26466C3.18922 7.04799 3.06356 6.84432 2.95089 6.65366C2.83822 6.45432 2.76456 6.32432 2.72989 6.26366C2.71256 6.21166 2.74722 6.28966 2.83389 6.49766C2.92922 6.70566 3.04622 6.93966 3.18489 7.19966C3.32356 7.45966 3.45789 7.69366 3.58789 7.90166C3.71789 8.10099 3.80889 8.16599 3.86089 8.09666ZM7.21489 6.02966C7.18889 7.00899 7.16722 7.89299 7.14989 8.68166C7.14989 9.01099 7.14989 9.34032 7.14989 9.66966C7.14989 9.99899 7.15422 10.298 7.16289 10.5667C7.17156 10.8267 7.18022 11.0477 7.18889 11.2297C7.19756 11.403 7.21489 11.5113 7.24089 11.5547C7.25822 11.598 7.27122 11.5417 7.27989 11.3857C7.28856 11.2297 7.29289 11.026 7.29289 10.7747C7.29289 10.5233 7.28856 10.2287 7.27989 9.89066C7.27122 9.55266 7.26689 9.21032 7.26689 8.86366C7.24956 8.04032 7.23222 7.09566 7.21489 6.02966ZM16.1266 16.5987H7.91059V0.712657H16.1266V16.5987ZM12.0056 6.32866C12.2483 6.35466 12.4606 6.44999 12.6426 6.61466C12.8333 6.77066 12.9936 6.96566 13.1236 7.19966C13.2536 7.42499 13.3533 7.67632 13.4226 7.95366C13.4919 8.23099 13.5266 8.50399 13.5266 8.77266C13.5266 9.04132 13.4876 9.32732 13.4096 9.63066C13.3403 9.92532 13.2363 10.194 13.0976 10.4367C12.9589 10.6707 12.7986 10.8657 12.6166 11.0217C12.4346 11.1777 12.2439 11.2557 12.0446 11.2557C11.8366 11.2557 11.6069 11.2123 11.3556 11.1257C11.1129 11.0303 10.8833 10.8787 10.6666 10.6707C10.4586 10.454 10.2853 10.1767 10.1466 9.83866C10.0079 9.49199 9.95593 9.06732 9.99059 8.56466C10.0079 8.06199 10.1119 7.66332 10.3026 7.36866C10.5019 7.06532 10.7143 6.83566 10.9396 6.67966C11.1736 6.51499 11.3946 6.41099 11.6026 6.36766C11.8193 6.32432 11.9536 6.31132 12.0056 6.32866ZM12.9416 5.92566C12.7336 5.72632 12.5559 5.58766 12.4086 5.50966C12.2613 5.42299 12.2223 5.44899 12.2916 5.58766C12.2916 5.61366 12.1963 5.62666 12.0056 5.62666C11.8236 5.62666 11.5939 5.65266 11.3166 5.70466C11.0479 5.75666 10.7749 5.85199 10.4976 5.99066C10.2203 6.12066 10.0079 6.33299 9.86059 6.62766C9.68726 6.92232 9.54859 7.29066 9.44459 7.73266C9.34926 8.16599 9.30593 8.61232 9.31459 9.07166C9.33193 9.53099 9.41426 9.96866 9.56159 10.3847C9.70893 10.8007 9.94726 11.1473 10.2766 11.4247C10.6233 11.6933 10.9656 11.8753 11.3036 11.9707C11.6416 12.066 11.9536 12.092 12.2396 12.0487C12.5256 11.9967 12.7769 11.884 12.9936 11.7107C13.2103 11.5373 13.3793 11.3423 13.5006 11.1257C13.6046 10.9003 13.7043 10.6447 13.7996 10.3587C13.8949 10.064 13.9686 9.76932 14.0206 9.47466C14.0726 9.17132 14.0943 8.88099 14.0856 8.60366C14.0769 8.31766 14.0466 8.06199 13.9946 7.83666C13.7346 6.98732 13.3836 6.35032 12.9416 5.92566ZM15.0086 9.79966C14.9739 9.83432 14.9566 9.86032 14.9566 9.87766C14.9566 9.92099 14.9609 9.95566 14.9696 9.98166C14.9783 10.0077 15.0043 10.0293 15.0476 10.0467L15.0086 9.79966ZM13.2796 5.54866C13.0803 5.43599 12.9026 5.34066 12.7466 5.26266C12.5993 5.18466 12.4649 5.12832 12.3436 5.09366C12.2049 5.05032 12.0749 5.02866 11.9536 5.02866L12.4346 5.18466C12.4606 5.19332 12.5473 5.24532 12.6946 5.34066C12.8506 5.42732 13.0153 5.53566 13.1886 5.66566C13.3706 5.79566 13.5396 5.94299 13.6956 6.10766C13.8603 6.27232 13.9773 6.44566 14.0466 6.62766C14.1159 6.80966 14.1766 7.02199 14.2286 7.26466C14.2893 7.49866 14.3369 7.74566 14.3716 8.00566C14.4149 8.26566 14.4453 8.52132 14.4626 8.77266C14.4799 9.01532 14.4713 9.23199 14.4366 9.42266C14.3759 9.82132 14.2893 10.181 14.1766 10.5017C14.0726 10.8223 13.8473 11.1603 13.5006 11.5157C13.3186 11.689 13.1323 11.8363 12.9416 11.9577C12.7596 12.0703 12.5906 12.1613 12.4346 12.2307C12.2439 12.3173 12.0663 12.3823 11.9016 12.4257C12.1963 12.3477 12.4779 12.248 12.7466 12.1267C12.9719 12.0227 13.2016 11.884 13.4356 11.7107C13.6783 11.5287 13.8733 11.3077 14.0206 11.0477C14.1679 10.7877 14.2763 10.5017 14.3456 10.1897C14.4236 9.86899 14.4799 9.56132 14.5146 9.26666C14.5493 8.97199 14.5623 8.70766 14.5536 8.47366C14.5536 8.23966 14.5493 8.06199 14.5406 7.94066C14.5146 7.85399 14.4713 7.70666 14.4106 7.49866C14.3499 7.28199 14.2676 7.05232 14.1636 6.80966C14.0596 6.55832 13.9296 6.31999 13.7736 6.09466C13.6263 5.86066 13.4616 5.67866 13.2796 5.54866ZM11.3686 6.80966C11.2386 6.87899 11.1129 6.96566 10.9916 7.06966C10.8789 7.16499 10.7706 7.28632 10.6666 7.43366C10.5626 7.58099 10.4803 7.74999 10.4196 7.94066C10.2983 8.33932 10.2679 8.76399 10.3286 9.21466C10.3893 9.65666 10.4803 10.0077 10.6016 10.2677C10.6709 10.3977 10.7576 10.5103 10.8616 10.6057C10.9656 10.701 11.0696 10.7747 11.1736 10.8267C11.2863 10.8787 11.3859 10.9177 11.4726 10.9437C11.5593 10.9697 11.6156 10.974 11.6416 10.9567C11.6676 10.9133 11.6329 10.8527 11.5376 10.7747C11.4509 10.688 11.3556 10.597 11.2516 10.5017C11.1996 10.4583 11.1346 10.4063 11.0566 10.3457C10.9873 10.285 10.9136 10.1983 10.8356 10.0857C10.7663 9.97299 10.7013 9.82132 10.6406 9.63066C10.5886 9.43132 10.5583 9.16699 10.5496 8.83766C10.5063 8.52566 10.5236 8.23966 10.6016 7.97966C10.6883 7.71966 10.7923 7.50732 10.9136 7.34266C11.0523 7.14332 11.2039 6.96566 11.3686 6.80966ZM23.8438 16.5987H15.6018V0.712657H23.8438V16.5987ZM18.2278 11.5677C18.2452 11.4983 18.2192 11.4117 18.1498 11.3077C18.0805 11.2037 18.0372 11.117 18.0198 11.0477C18.0198 11.0043 18.0155 10.883 18.0068 10.6837C18.0068 10.4843 18.0025 10.259 17.9938 10.0077C17.9852 9.74766 17.9808 9.50066 17.9808 9.26666C17.9808 9.02399 17.9808 8.82899 17.9808 8.68166C17.9982 8.43032 18.0155 8.23099 18.0328 8.08366C18.0588 7.93632 18.0632 7.82799 18.0458 7.75866C18.0285 7.73266 17.9895 7.77599 17.9288 7.88866C17.8942 7.94932 17.8552 8.00566 17.8118 8.05766C17.8032 7.92766 17.7902 7.79766 17.7728 7.66766C17.7642 7.56366 17.7598 7.46399 17.7598 7.36866C17.7685 7.26466 17.7858 7.19966 17.8118 7.17366C17.8898 7.12166 17.9505 7.07399 17.9938 7.03066C18.0458 6.97866 18.1022 6.97432 18.1628 7.01766C18.1715 7.02632 18.2278 7.12166 18.3318 7.30366C18.4445 7.47699 18.5745 7.68932 18.7218 7.94066C18.8778 8.18332 19.0425 8.45199 19.2158 8.74666C19.3892 9.03266 19.5495 9.30566 19.6968 9.56566C19.8442 9.82566 19.9698 10.0423 20.0738 10.2157C20.1865 10.3803 20.2515 10.4843 20.2688 10.5277L20.7238 11.1387C20.7325 11.1473 20.7455 11.195 20.7628 11.2817C20.7888 11.3597 20.8105 11.4463 20.8278 11.5417C20.8538 11.637 20.8798 11.7323 20.9058 11.8277C20.9405 11.9143 20.9795 11.9663 21.0228 11.9837C21.0575 12.0097 21.1182 12.0313 21.2048 12.0487C21.3002 12.0573 21.3912 12.0573 21.4778 12.0487C21.5645 12.0313 21.6468 12.0053 21.7248 11.9707C21.8028 11.936 21.8462 11.8753 21.8548 11.7887C21.8895 11.624 21.8722 11.4247 21.8028 11.1907C21.7335 10.948 21.6988 10.5407 21.6988 9.96866C21.6988 9.69999 21.7032 9.39232 21.7118 9.04566C21.7292 8.69899 21.7378 8.35666 21.7378 8.01866C21.7378 7.68066 21.7378 7.38166 21.7378 7.12166C21.7465 6.85299 21.7552 6.66666 21.7638 6.56266C21.7898 6.34599 21.8202 6.17699 21.8548 6.05566C21.8982 5.93432 21.9112 5.84332 21.8938 5.78266C21.8678 5.74799 21.8505 5.70466 21.8418 5.65266C21.8418 5.60066 21.8288 5.54432 21.8028 5.48366C21.7682 5.42299 21.7465 5.36232 21.7378 5.30166C21.6858 5.37099 21.6382 5.43599 21.5948 5.49666C21.4995 5.64399 21.4258 5.73499 21.3738 5.76966C21.3218 5.78699 21.2568 5.81732 21.1788 5.86066C21.1095 5.90399 21.0705 5.96032 21.0618 6.02966C21.0618 6.11632 21.0922 6.26799 21.1528 6.48466C21.2222 6.70132 21.2438 6.90499 21.2178 7.09566C21.2178 7.17366 21.2135 7.35566 21.2048 7.64166C21.2048 7.91899 21.1962 8.21799 21.1788 8.53866C21.1615 8.85932 21.1485 9.15832 21.1398 9.43566C21.1312 9.71299 21.1268 9.88632 21.1268 9.95566C21.0922 10.077 21.0662 10.2157 21.0488 10.3717C21.0315 10.5277 20.9838 10.6317 20.9058 10.6837C20.8452 10.7443 20.7715 10.7703 20.6848 10.7617C20.6068 10.7443 20.5375 10.675 20.4768 10.5537C20.4075 10.441 20.3512 10.3457 20.3078 10.2677C20.2645 10.181 20.2342 10.09 20.2168 9.99466C20.1908 9.89932 20.1692 9.81266 20.1518 9.73466C20.1432 9.65666 20.1648 9.60899 20.2168 9.59166C20.2515 9.57432 20.2732 9.56566 20.2818 9.56566C20.2905 9.56566 20.3165 9.55266 20.3598 9.52666C20.3945 9.52666 20.4162 9.52232 20.4248 9.51366C20.3035 9.37499 20.1908 9.24066 20.0868 9.11066C19.8615 8.85066 19.7142 8.65566 19.6448 8.52566C19.6015 8.46499 19.5278 8.33066 19.4238 8.12266C19.3285 7.91466 19.2245 7.69366 19.1118 7.45966C19.0078 7.22566 18.9038 7.00466 18.7998 6.79666C18.7045 6.58866 18.6438 6.46299 18.6178 6.41966C18.5398 6.32432 18.4575 6.17266 18.3708 5.96466C18.2928 5.75666 18.2278 5.63099 18.1758 5.58766C18.1325 5.55299 18.1108 5.50532 18.1108 5.44466C18.1108 5.37532 18.1108 5.32766 18.1108 5.30166C18.1108 5.26699 18.1022 5.27566 18.0848 5.32766C18.0762 5.37099 18.0502 5.41866 18.0068 5.47066C17.9548 5.51399 17.8508 5.57466 17.6948 5.65266C17.5388 5.73066 17.4478 5.80866 17.4218 5.88666C17.4218 5.93866 17.4305 6.00799 17.4478 6.09466C17.4738 6.17266 17.5042 6.25499 17.5388 6.34166C17.5822 6.42832 17.6168 6.51066 17.6428 6.58866C17.6688 6.66666 17.6818 6.71432 17.6818 6.73166C17.6992 6.81832 17.6818 6.95266 17.6298 7.13466C17.5865 7.31666 17.5648 7.45966 17.5648 7.56366C17.5648 7.68499 17.5475 7.81499 17.5128 7.95366C17.4782 8.08366 17.4608 8.19632 17.4608 8.29166C17.4608 8.33499 17.4522 8.51266 17.4348 8.82466C17.4262 9.12799 17.4218 9.46599 17.4218 9.83866C17.4218 10.2113 17.4218 10.5623 17.4218 10.8917C17.4218 11.221 17.4348 11.429 17.4608 11.5157C17.5648 11.845 17.6948 12.001 17.8508 11.9837C17.9202 11.949 17.9938 11.884 18.0718 11.7887C18.1585 11.6847 18.2105 11.611 18.2278 11.5677ZM18.0978 12.0617C18.0805 12.079 18.0762 12.118 18.0848 12.1787C18.0935 12.2307 18.1022 12.2437 18.1108 12.2177C18.1108 12.1917 18.1282 12.1613 18.1628 12.1267C18.2062 12.0833 18.2408 12.0357 18.2668 11.9837C18.3188 11.9317 18.3708 11.8667 18.4228 11.7887L18.3058 11.9057C18.2105 11.9577 18.1412 12.0097 18.0978 12.0617ZM18.4748 11.5937V10.5277C18.4748 10.2503 18.4748 9.99466 18.4748 9.76066C18.4748 9.52666 18.4835 9.39232 18.5008 9.35766C18.5008 9.32299 18.4878 9.24932 18.4618 9.13666C18.4358 9.02399 18.4142 8.90699 18.3968 8.78566C18.3448 8.65566 18.3015 8.51266 18.2668 8.35666C18.3015 8.92866 18.3362 9.44866 18.3708 9.91666C18.3882 10.116 18.3968 10.3197 18.3968 10.5277C18.4055 10.727 18.4185 10.9047 18.4358 11.0607C18.4532 11.208 18.4618 11.3293 18.4618 11.4247C18.4705 11.52 18.4748 11.5763 18.4748 11.5937ZM20.4248 8.83766C20.3208 8.62966 20.2168 8.41732 20.1128 8.20066C20.0175 8.00999 19.9178 7.81932 19.8138 7.62866C19.7185 7.43799 19.6318 7.27766 19.5538 7.14766C19.4758 7.01766 19.3892 6.86599 19.2938 6.69266C19.2072 6.51066 19.1162 6.33732 19.0208 6.17266C18.9342 6.00799 18.8518 5.86066 18.7738 5.73066C18.6958 5.60066 18.6265 5.51832 18.5658 5.48366C18.5052 5.44899 18.4532 5.41866 18.4098 5.39266C18.3665 5.35799 18.3188 5.32766 18.2668 5.30166C18.2062 5.26699 18.1542 5.24532 18.1108 5.23666C18.2842 5.43599 18.4532 5.65266 18.6178 5.88666C18.7738 6.10332 18.9428 6.35899 19.1248 6.65366C19.3068 6.94832 19.4888 7.26032 19.6708 7.58966C19.8528 7.93632 19.9915 8.19199 20.0868 8.35666C20.1908 8.52132 20.2602 8.64266 20.2948 8.72066C20.3728 8.79866 20.4162 8.83766 20.4248 8.83766ZM22.1148 11.3987V11.6847C22.1322 11.676 22.1408 11.6457 22.1408 11.5937C22.1408 11.559 22.1408 11.5287 22.1408 11.5027C22.1408 11.4767 22.1322 11.442 22.1148 11.3987ZM21.2568 12.3997H21.3478C21.3652 12.3997 21.4215 12.3823 21.5168 12.3477C21.5515 12.3477 21.5862 12.339 21.6208 12.3217C21.6555 12.2957 21.6988 12.2653 21.7508 12.2307C21.8115 12.196 21.8635 12.157 21.9068 12.1137L21.2568 12.3997ZM18.6568 9.77366L18.7868 9.66966L18.7608 9.56566L18.6568 9.77366ZM22.0628 11.1387V11.0867C22.0628 11.078 22.0672 11.0607 22.0758 11.0347C22.0845 11.0087 22.0888 10.9783 22.0888 10.9437C22.0888 10.9177 22.1062 10.883 22.1408 10.8397C22.1755 10.7963 22.1928 10.7487 22.1928 10.6967V8.27866C22.1928 7.56799 22.1972 6.77066 22.2058 5.88666C22.1712 5.93866 22.1452 6.05132 22.1278 6.22466C22.1192 6.38932 22.1062 6.59732 22.0888 6.84866C22.0715 7.09132 22.0628 7.36866 22.0628 7.68066C22.0628 7.99266 22.0628 8.31332 22.0628 8.64266V11.1387ZM31.5387 16.5987H23.3227V0.712657H31.5387V16.5987ZM27.4177 6.32866C27.6604 6.35466 27.8727 6.44999 28.0547 6.61466C28.2454 6.77066 28.4057 6.96566 28.5357 7.19966C28.6657 7.42499 28.7654 7.67632 28.8347 7.95366C28.904 8.23099 28.9387 8.50399 28.9387 8.77266C28.9387 9.04132 28.8997 9.32732 28.8217 9.63066C28.7524 9.92532 28.6484 10.194 28.5097 10.4367C28.371 10.6707 28.2107 10.8657 28.0287 11.0217C27.8467 11.1777 27.656 11.2557 27.4567 11.2557C27.2487 11.2557 27.019 11.2123 26.7677 11.1257C26.525 11.0303 26.2954 10.8787 26.0787 10.6707C25.8707 10.454 25.6974 10.1767 25.5587 9.83866C25.42 9.49199 25.368 9.06732 25.4027 8.56466C25.42 8.06199 25.524 7.66332 25.7147 7.36866C25.914 7.06532 26.1264 6.83566 26.3517 6.67966C26.5857 6.51499 26.8067 6.41099 27.0147 6.36766C27.2314 6.32432 27.3657 6.31132 27.4177 6.32866ZM28.3537 5.92566C28.1457 5.72632 27.968 5.58766 27.8207 5.50966C27.6734 5.42299 27.6344 5.44899 27.7037 5.58766C27.7037 5.61366 27.6084 5.62666 27.4177 5.62666C27.2357 5.62666 27.006 5.65266 26.7287 5.70466C26.46 5.75666 26.187 5.85199 25.9097 5.99066C25.6324 6.12066 25.42 6.33299 25.2727 6.62766C25.0994 6.92232 24.9607 7.29066 24.8567 7.73266C24.7614 8.16599 24.718 8.61232 24.7267 9.07166C24.744 9.53099 24.8264 9.96866 24.9737 10.3847C25.121 10.8007 25.3594 11.1473 25.6887 11.4247C26.0354 11.6933 26.3777 11.8753 26.7157 11.9707C27.0537 12.066 27.3657 12.092 27.6517 12.0487C27.9377 11.9967 28.189 11.884 28.4057 11.7107C28.6224 11.5373 28.7914 11.3423 28.9127 11.1257C29.0167 10.9003 29.1164 10.6447 29.2117 10.3587C29.307 10.064 29.3807 9.76932 29.4327 9.47466C29.4847 9.17132 29.5064 8.88099 29.4977 8.60366C29.489 8.31766 29.4587 8.06199 29.4067 7.83666C29.1467 6.98732 28.7957 6.35032 28.3537 5.92566ZM30.4207 9.79966C30.386 9.83432 30.3687 9.86032 30.3687 9.87766C30.3687 9.92099 30.373 9.95566 30.3817 9.98166C30.3904 10.0077 30.4164 10.0293 30.4597 10.0467L30.4207 9.79966ZM28.6917 5.54866C28.4924 5.43599 28.3147 5.34066 28.1587 5.26266C28.0114 5.18466 27.877 5.12832 27.7557 5.09366C27.617 5.05032 27.487 5.02866 27.3657 5.02866L27.8467 5.18466C27.8727 5.19332 27.9594 5.24532 28.1067 5.34066C28.2627 5.42732 28.4274 5.53566 28.6007 5.66566C28.7827 5.79566 28.9517 5.94299 29.1077 6.10766C29.2724 6.27232 29.3894 6.44566 29.4587 6.62766C29.528 6.80966 29.5887 7.02199 29.6407 7.26466C29.7014 7.49866 29.749 7.74566 29.7837 8.00566C29.827 8.26566 29.8574 8.52132 29.8747 8.77266C29.892 9.01532 29.8834 9.23199 29.8487 9.42266C29.788 9.82132 29.7014 10.181 29.5887 10.5017C29.4847 10.8223 29.2594 11.1603 28.9127 11.5157C28.7307 11.689 28.5444 11.8363 28.3537 11.9577C28.1717 12.0703 28.0027 12.1613 27.8467 12.2307C27.656 12.3173 27.4784 12.3823 27.3137 12.4257C27.6084 12.3477 27.89 12.248 28.1587 12.1267C28.384 12.0227 28.6137 11.884 28.8477 11.7107C29.0904 11.5287 29.2854 11.3077 29.4327 11.0477C29.58 10.7877 29.6884 10.5017 29.7577 10.1897C29.8357 9.86899 29.892 9.56132 29.9267 9.26666C29.9614 8.97199 29.9744 8.70766 29.9657 8.47366C29.9657 8.23966 29.9614 8.06199 29.9527 7.94066C29.9267 7.85399 29.8834 7.70666 29.8227 7.49866C29.762 7.28199 29.6797 7.05232 29.5757 6.80966C29.4717 6.55832 29.3417 6.31999 29.1857 6.09466C29.0384 5.86066 28.8737 5.67866 28.6917 5.54866ZM26.7807 6.80966C26.6507 6.87899 26.525 6.96566 26.4037 7.06966C26.291 7.16499 26.1827 7.28632 26.0787 7.43366C25.9747 7.58099 25.8924 7.74999 25.8317 7.94066C25.7104 8.33932 25.68 8.76399 25.7407 9.21466C25.8014 9.65666 25.8924 10.0077 26.0137 10.2677C26.083 10.3977 26.1697 10.5103 26.2737 10.6057C26.3777 10.701 26.4817 10.7747 26.5857 10.8267C26.6984 10.8787 26.798 10.9177 26.8847 10.9437C26.9714 10.9697 27.0277 10.974 27.0537 10.9567C27.0797 10.9133 27.045 10.8527 26.9497 10.7747C26.863 10.688 26.7677 10.597 26.6637 10.5017C26.6117 10.4583 26.5467 10.4063 26.4687 10.3457C26.3994 10.285 26.3257 10.1983 26.2477 10.0857C26.1784 9.97299 26.1134 9.82132 26.0527 9.63066C26.0007 9.43132 25.9704 9.16699 25.9617 8.83766C25.9184 8.52566 25.9357 8.23966 26.0137 7.97966C26.1004 7.71966 26.2044 7.50732 26.3257 7.34266C26.4644 7.14332 26.616 6.96566 26.7807 6.80966ZM39.3599 16.5987H31.1179V0.712657H39.3599V16.5987Z" fill="black"/>
</svg>
