<svg width="110" height="17" viewBox="0 0 110 17" fill="none" xmlns="http://www.w3.org/2000/svg">
<rect x="1" y="1" width="54" height="15" fill="white"/>
<path d="M8.969 16.212H0.74V0.325999H8.969V16.212ZM5.862 5.175L5.901 5.201C5.927 5.227 5.97033 5.227 6.031 5.201C6.10033 5.18367 6.135 5.162 6.135 5.136C6.135 5.10133 6.09167 5.071 6.005 5.045C5.927 5.019 5.85767 5.03633 5.797 5.097C5.745 5.149 5.693 5.18367 5.641 5.201C5.589 5.23567 5.537 5.292 5.485 5.37C5.433 5.43933 5.29 5.49567 5.056 5.539C4.83067 5.565 4.653 5.57367 4.523 5.565C4.393 5.55633 4.26733 5.54767 4.146 5.539C4.094 5.539 4.02033 5.53467 3.925 5.526C3.82967 5.50867 3.743 5.50867 3.665 5.526C3.587 5.53467 3.51333 5.565 3.444 5.617C3.37467 5.669 3.33567 5.75133 3.327 5.864C3.301 5.97667 3.32267 6.05467 3.392 6.098C3.47 6.14133 3.561 6.16733 3.665 6.176C3.77767 6.176 3.88167 6.176 3.977 6.176C4.07233 6.176 4.13733 6.189 4.172 6.215C4.31933 6.40567 4.393 6.73067 4.393 7.19C4.393 7.30267 4.39733 7.53667 4.406 7.892C4.41467 8.24733 4.42333 8.62867 4.432 9.036C4.44933 9.44333 4.458 9.816 4.458 10.154C4.458 10.492 4.458 10.6827 4.458 10.726C4.432 10.83 4.40167 10.9297 4.367 11.025C4.341 11.1117 4.28033 11.1723 4.185 11.207C4.107 11.233 4.03767 11.233 3.977 11.207C3.925 11.1723 3.86 11.1593 3.782 11.168C3.74733 11.168 3.704 11.2027 3.652 11.272C3.6 11.3327 3.55233 11.3977 3.509 11.467C3.46567 11.5277 3.42667 11.5927 3.392 11.662C3.35733 11.7313 3.35733 11.7747 3.392 11.792C3.43533 11.8353 3.57833 11.8483 3.821 11.831C4.06367 11.805 4.263 11.792 4.419 11.792C4.55767 11.792 4.70933 11.8007 4.874 11.818C5.03867 11.8267 5.186 11.8397 5.316 11.857C5.43733 11.8917 5.57167 11.909 5.719 11.909C5.875 11.9003 5.98767 11.8353 6.057 11.714C6.12633 11.61 6.174 11.493 6.2 11.363C6.23467 11.233 6.22167 11.1377 6.161 11.077C6.07433 10.9903 5.95733 10.9643 5.81 10.999C5.76667 11.0077 5.706 10.9817 5.628 10.921C5.55 10.8603 5.48933 10.83 5.446 10.83C5.38533 10.83 5.30733 10.869 5.212 10.947C5.12533 11.025 5.06033 11.0597 5.017 11.051C4.98233 11.051 4.96067 11.0033 4.952 10.908C4.952 10.8127 4.94767 10.713 4.939 10.609C4.93033 10.4963 4.926 10.388 4.926 10.284C4.926 10.1713 4.926 10.089 4.926 10.037V6.709C4.926 6.579 4.926 6.48367 4.926 6.423C4.926 6.36233 4.952 6.31467 5.004 6.28C5.11667 6.23667 5.22933 6.23667 5.342 6.28C5.38533 6.306 5.47633 6.33633 5.615 6.371C5.76233 6.397 5.875 6.36667 5.953 6.28C6.02233 6.21933 6.09167 6.15 6.161 6.072C6.239 5.98533 6.26067 5.89867 6.226 5.812C6.18267 5.63867 6.08733 5.526 5.94 5.474C5.87067 5.448 5.81433 5.422 5.771 5.396C5.73633 5.36133 5.74067 5.331 5.784 5.305C5.80133 5.27033 5.888 5.253 6.044 5.253C6.20867 5.24433 6.30833 5.305 6.343 5.435C6.35167 5.513 6.356 5.58233 6.356 5.643C6.356 5.70367 6.356 5.76 6.356 5.812V5.968C6.382 5.84667 6.395 5.73833 6.395 5.643C6.395 5.57367 6.38633 5.5 6.369 5.422C6.35167 5.344 6.32567 5.28767 6.291 5.253C6.265 5.21833 6.226 5.201 6.174 5.201C6.122 5.201 6.07433 5.19667 6.031 5.188C5.97033 5.188 5.914 5.18367 5.862 5.175ZM4.12 4.993L6.005 5.045C5.70167 5.019 5.42 5.00167 5.16 4.993C4.94333 4.967 4.731 4.954 4.523 4.954C4.32367 4.94533 4.18933 4.95833 4.12 4.993ZM5.394 6.917L5.446 10.531L5.55 10.505C5.524 10.479 5.511 10.4573 5.511 10.44C5.511 10.4313 5.50667 10.4183 5.498 10.401C5.498 10.3837 5.498 10.362 5.498 10.336C5.48067 10.2927 5.46767 10.089 5.459 9.725C5.45033 9.361 5.43733 8.971 5.42 8.555L5.394 6.917ZM5.589 10.609C5.589 10.6437 5.61067 10.6697 5.654 10.687C5.69733 10.6957 5.75367 10.7 5.823 10.7C5.901 10.7 5.966 10.7043 6.018 10.713C6.07867 10.7217 6.11767 10.726 6.135 10.726C6.16967 10.752 6.22167 10.804 6.291 10.882C6.36033 10.96 6.395 11.025 6.395 11.077C6.395 11.1377 6.39933 11.207 6.408 11.285C6.42533 11.3543 6.42533 11.3673 6.408 11.324C6.39933 11.3067 6.395 11.2113 6.395 11.038C6.40367 10.856 6.33433 10.7303 6.187 10.661C6.03967 10.5743 5.90967 10.518 5.797 10.492C5.693 10.4573 5.62367 10.4963 5.589 10.609ZM16.6463 16.212H8.41731V0.325999H16.6463V16.212ZM11.6933 8.906C11.7626 8.94067 11.819 8.958 11.8623 8.958C11.9143 8.958 11.9923 8.94067 12.0963 8.906C12.1396 8.89733 12.313 8.90167 12.6163 8.919C12.9196 8.93633 13.2316 8.906 13.5523 8.828C13.873 8.75 14.1676 8.59833 14.4363 8.373C14.7136 8.14767 14.8523 7.77933 14.8523 7.268C14.8523 6.75667 14.77 6.358 14.6053 6.072C14.4406 5.786 14.25 5.578 14.0333 5.448C13.8253 5.30933 13.6216 5.227 13.4223 5.201C13.223 5.16633 13.08 5.149 12.9933 5.149C12.9153 5.149 12.7766 5.149 12.5773 5.149C12.3866 5.149 12.1786 5.149 11.9533 5.149C11.728 5.149 11.5243 5.149 11.3423 5.149C11.169 5.149 11.0606 5.15767 11.0173 5.175C10.948 5.19233 10.8873 5.24 10.8353 5.318C10.792 5.396 10.7703 5.474 10.7703 5.552C10.7703 5.578 10.7616 5.65167 10.7443 5.773C10.7356 5.88567 10.7226 6.02 10.7053 6.176C10.6966 6.332 10.688 6.488 10.6793 6.644C10.6793 6.8 10.6793 6.95167 10.6793 7.099C10.6793 7.229 10.6793 7.39367 10.6793 7.593C10.688 7.78367 10.701 7.96567 10.7183 8.139C10.7356 8.31233 10.753 8.47267 10.7703 8.62C10.7963 8.76733 10.8093 8.86267 10.8093 8.906C10.8093 8.97533 10.7963 9.08367 10.7703 9.231C10.753 9.37833 10.7313 9.543 10.7053 9.725C10.688 9.907 10.6663 10.0847 10.6403 10.258C10.623 10.4313 10.6056 10.5527 10.5883 10.622C10.5536 10.778 10.5623 10.934 10.6143 11.09C10.6663 11.246 10.8006 11.3847 11.0173 11.506C11.2166 11.6273 11.3423 11.636 11.3943 11.532C11.4463 11.4193 11.4853 11.324 11.5113 11.246C11.5113 11.1767 11.494 11.0943 11.4593 10.999C11.4246 10.9037 11.3943 10.83 11.3683 10.778C11.3336 10.7433 11.299 10.6567 11.2643 10.518C11.2383 10.3793 11.2253 10.245 11.2253 10.115C11.2253 10.0283 11.2253 9.92 11.2253 9.79C11.2253 9.65133 11.234 9.504 11.2513 9.348C11.2513 9.18333 11.26 9.00133 11.2773 8.802C11.3033 8.81067 11.3466 8.82367 11.4073 8.841C11.442 8.85833 11.4853 8.87567 11.5373 8.893C11.5893 8.90167 11.6413 8.906 11.6933 8.906ZM11.4073 7.255C11.4073 7.21167 11.403 7.125 11.3943 6.995C11.3856 6.865 11.377 6.735 11.3683 6.605C11.3683 6.475 11.364 6.35367 11.3553 6.241C11.3553 6.11967 11.3596 6.046 11.3683 6.02C11.3943 5.95933 11.416 5.93767 11.4333 5.955C11.4593 5.96367 11.4896 5.968 11.5243 5.968C11.5763 5.968 11.65 5.981 11.7453 6.007C11.8493 6.02433 11.936 6.033 12.0053 6.033H12.6813C12.716 6.033 12.781 6.033 12.8763 6.033C12.9716 6.02433 13.067 6.02 13.1623 6.02C13.2663 6.02 13.3703 6.02433 13.4743 6.033C13.5783 6.033 13.6606 6.05033 13.7213 6.085C13.8426 6.15433 13.951 6.254 14.0463 6.384C14.1503 6.514 14.2023 6.75233 14.2023 7.099C14.2023 7.26367 14.159 7.40667 14.0723 7.528C13.9943 7.64067 13.9033 7.74467 13.7993 7.84C13.6953 7.93533 13.5913 8.009 13.4873 8.061C13.3833 8.10433 13.3096 8.126 13.2663 8.126C13.2143 8.126 13.119 8.126 12.9803 8.126C12.8503 8.126 12.716 8.113 12.5773 8.087C12.4126 8.087 12.2393 8.08267 12.0573 8.074C12.0226 8.074 11.9836 8.07833 11.9403 8.087C11.9143 8.113 11.8753 8.13033 11.8233 8.139C11.78 8.139 11.741 8.14333 11.7063 8.152C11.5416 8.204 11.4246 8.178 11.3553 8.074C11.3553 7.95267 11.3596 7.84 11.3683 7.736C11.377 7.64067 11.3856 7.554 11.3943 7.476C11.403 7.38933 11.4073 7.31567 11.4073 7.255ZM11.6153 6.254C11.5893 6.26267 11.5893 6.332 11.6153 6.462C11.65 6.592 11.6673 6.69167 11.6673 6.761C11.6673 6.839 11.6716 6.92567 11.6803 7.021C11.6976 7.10767 11.6933 7.18567 11.6673 7.255C11.6326 7.34167 11.611 7.40233 11.6023 7.437C11.585 7.47167 11.5763 7.49767 11.5763 7.515C11.611 7.50633 11.6543 7.47167 11.7063 7.411C11.741 7.37633 11.7756 7.32433 11.8103 7.255C11.845 7.18567 11.8753 7.11633 11.9013 7.047C11.91 6.88233 11.884 6.70033 11.8233 6.501C11.7713 6.293 11.702 6.21067 11.6153 6.254ZM12.7983 6.371H12.5773C12.5166 6.371 12.469 6.37967 12.4343 6.397C12.3996 6.40567 12.391 6.41433 12.4083 6.423C12.495 6.475 12.5903 6.47933 12.6943 6.436C12.7376 6.42733 12.7723 6.40567 12.7983 6.371ZM12.8503 7.801L12.4473 7.697C12.4906 7.74033 12.5426 7.775 12.6033 7.801C12.69 7.853 12.7723 7.853 12.8503 7.801ZM11.6023 9.101L11.6933 9.335C11.728 9.39567 11.754 9.45633 11.7713 9.517C11.7886 9.569 11.7973 9.61233 11.7973 9.647C11.7973 9.673 11.8016 9.751 11.8103 9.881C11.819 10.0023 11.8233 10.1323 11.8233 10.271V10.817L11.8623 9.426L12.7333 9.296C12.5686 9.322 12.4083 9.322 12.2523 9.296C12.131 9.28733 12.0053 9.27 11.8753 9.244C11.754 9.218 11.663 9.17033 11.6023 9.101ZM15.1123 7.879C15.225 7.62767 15.277 7.333 15.2683 6.995C15.2596 6.64833 15.2076 6.33633 15.1123 6.059C15.0603 5.929 14.9953 5.812 14.9173 5.708C14.848 5.604 14.7786 5.513 14.7093 5.435C14.6313 5.36567 14.536 5.30067 14.4233 5.24C14.458 5.24867 14.4883 5.27033 14.5143 5.305C14.549 5.331 14.5793 5.36567 14.6053 5.409C14.64 5.45233 14.6876 5.49567 14.7483 5.539C14.8783 5.66033 14.9866 5.851 15.0733 6.111C15.16 6.371 15.2033 6.62233 15.2033 6.865C15.2293 7.099 15.1903 7.372 15.0863 7.684C14.991 7.996 14.8783 8.23433 14.7483 8.399C14.679 8.46833 14.5923 8.542 14.4883 8.62C14.393 8.698 14.289 8.763 14.1763 8.815C14.0636 8.87567 13.9423 8.94933 13.8123 9.036C14.0723 9.00133 14.328 8.85833 14.5793 8.607C14.8393 8.35567 15.017 8.113 15.1123 7.879ZM24.4576 16.212H16.2286V0.325999H24.4576V16.212ZM22.8066 5.409C22.6593 5.49567 22.5119 5.56933 22.3646 5.63C22.2519 5.682 22.1436 5.73833 22.0396 5.799C21.9443 5.85967 21.8879 5.91167 21.8706 5.955C21.8446 5.981 21.8229 6.05467 21.8056 6.176C21.7969 6.29733 21.7969 6.423 21.8056 6.553C21.8229 6.67433 21.8359 6.79567 21.8446 6.917C21.8533 7.03833 21.8576 7.125 21.8576 7.177C21.8576 7.26367 21.8576 7.372 21.8576 7.502C21.8576 7.632 21.8533 7.762 21.8446 7.892C21.8359 8.022 21.8229 8.14333 21.8056 8.256C21.7883 8.36867 21.7709 8.43367 21.7536 8.451C21.7276 8.53767 21.6973 8.59833 21.6626 8.633C21.6279 8.659 21.5803 8.65033 21.5196 8.607C21.4503 8.58967 21.3853 8.54633 21.3246 8.477C21.2639 8.40767 21.2033 8.34267 21.1426 8.282C21.0819 8.23867 20.9303 8.243 20.6876 8.295C20.4449 8.347 20.2283 8.373 20.0376 8.373C19.8036 8.373 19.6346 8.36 19.5306 8.334C19.4353 8.29933 19.3703 8.22133 19.3356 8.1C19.3009 8.03933 19.2793 7.98733 19.2706 7.944C19.2619 7.892 19.2489 7.84 19.2316 7.788C19.2229 7.736 19.2186 7.69267 19.2186 7.658L19.1796 7.853C19.1709 7.89633 19.1536 7.944 19.1276 7.996C19.1016 8.03933 19.0713 8.06967 19.0366 8.087C18.9153 8.13033 18.8416 8.06967 18.8156 7.905C18.7983 7.74033 18.7896 7.58867 18.7896 7.45C18.7896 7.32 18.7853 7.19867 18.7766 7.086C18.7766 6.96467 18.7896 6.84767 18.8156 6.735C18.8763 6.527 18.9066 6.37533 18.9066 6.28C18.9066 6.228 18.8893 6.137 18.8546 6.007C18.8373 5.981 18.8243 5.95933 18.8156 5.942C18.8416 5.942 18.8763 5.93767 18.9196 5.929C19.0236 5.89433 19.0799 5.877 19.0886 5.877C19.0973 5.877 19.1103 5.95933 19.1276 6.124C19.1536 6.28 19.1709 6.44033 19.1796 6.605C19.1883 6.85633 19.1926 7.10767 19.1926 7.359L19.2186 5.929V5.812C19.2186 5.734 19.2013 5.695 19.1666 5.695C19.1233 5.695 19.0583 5.695 18.9716 5.695C18.8936 5.695 18.7939 5.70367 18.6726 5.721C18.5599 5.73833 18.4516 5.78167 18.3476 5.851C18.2523 5.91167 18.1743 6.00267 18.1136 6.124C18.0616 6.23667 18.0356 6.44033 18.0356 6.735C18.0356 7.021 18.0356 7.32 18.0356 7.632C18.0443 7.944 18.0703 8.23433 18.1136 8.503C18.1569 8.763 18.1786 8.919 18.1786 8.971C18.1786 9.04033 18.1786 9.19633 18.1786 9.439C18.1786 9.68167 18.1656 9.95467 18.1396 10.258C18.1223 10.5527 18.1136 10.8213 18.1136 11.064C18.1136 11.3067 18.1136 11.4367 18.1136 11.454C18.1136 11.4713 18.1223 11.5103 18.1396 11.571C18.1656 11.6317 18.1916 11.688 18.2176 11.74C18.2436 11.792 18.2739 11.844 18.3086 11.896C18.3433 11.9393 18.3996 11.9567 18.4776 11.948C18.5989 11.922 18.7203 11.8657 18.8416 11.779C18.9716 11.6837 19.0366 11.597 19.0366 11.519C19.0366 11.4843 19.0236 11.441 18.9976 11.389C18.9716 11.337 18.9413 11.2893 18.9066 11.246C18.8719 11.1853 18.8416 11.129 18.8156 11.077L18.8546 10.258C18.8719 10.0587 18.8849 9.87233 18.8936 9.699C18.9023 9.517 18.9066 9.40867 18.9066 9.374C18.9066 9.322 18.8633 9.24833 18.7766 9.153C18.6986 9.05767 18.7029 8.97533 18.7896 8.906C18.8676 8.86267 18.9456 8.84967 19.0236 8.867C19.1016 8.88433 19.1579 8.893 19.1926 8.893C19.2186 8.893 19.2966 8.89733 19.4266 8.906C19.5566 8.906 19.6953 8.91467 19.8426 8.932C19.9986 8.94933 20.1676 8.96233 20.3496 8.971C20.5316 8.971 20.6789 8.971 20.7916 8.971C21.0169 8.971 21.1556 8.971 21.2076 8.971C21.2596 8.96233 21.3073 8.94067 21.3506 8.906C21.3939 8.89733 21.4329 8.86267 21.4676 8.802C21.5109 8.776 21.5369 8.75433 21.5456 8.737L21.6886 8.802C21.7146 8.828 21.7493 8.854 21.7926 8.88C21.8359 8.906 21.8619 8.932 21.8706 8.958C21.8793 8.99267 21.8836 9.09233 21.8836 9.257C21.8923 9.42167 21.9139 9.61233 21.9486 9.829C21.9833 10.037 22.0006 10.2363 22.0006 10.427C22.0093 10.6177 22.0136 10.752 22.0136 10.83C22.0136 10.8647 22.0093 10.9427 22.0006 11.064C22.0006 11.1853 21.9833 11.3067 21.9486 11.428C21.9226 11.5407 21.9226 11.649 21.9486 11.753C21.9833 11.8483 22.0093 11.9003 22.0266 11.909C22.0959 11.935 22.1913 11.9177 22.3126 11.857C22.4426 11.7963 22.5509 11.7313 22.6376 11.662C22.6463 11.61 22.6463 11.545 22.6376 11.467C22.6376 11.389 22.6159 11.298 22.5726 11.194C22.5293 11.0813 22.4989 10.9817 22.4816 10.895C22.4729 10.7997 22.4686 10.7173 22.4686 10.648C22.4686 10.5873 22.4686 10.4617 22.4686 10.271C22.4773 10.0803 22.4816 9.855 22.4816 9.595C22.4903 9.335 22.4946 9.05333 22.4946 8.75C22.4946 8.438 22.4946 8.152 22.4946 7.892C22.4946 7.632 22.4946 7.41533 22.4946 7.242C22.4946 7.06 22.4946 6.93867 22.4946 6.878C22.4946 6.76533 22.5206 6.62667 22.5726 6.462C22.6246 6.29733 22.6506 6.18467 22.6506 6.124C22.6506 6.03733 22.6029 5.95933 22.5076 5.89L22.4556 5.812C22.4643 5.79467 22.4773 5.773 22.4946 5.747C22.5119 5.72967 22.5379 5.71667 22.5726 5.708C22.6159 5.69933 22.6463 5.695 22.6636 5.695C22.7156 5.695 22.7676 5.669 22.8196 5.617C22.8716 5.55633 22.8673 5.487 22.8066 5.409ZM20.8306 7.567L19.4526 7.541C19.4959 7.61033 19.5869 7.64933 19.7256 7.658C19.8643 7.658 20.0203 7.65367 20.1936 7.645L20.8306 7.567ZM19.2316 9.491C19.2056 9.48233 19.1926 9.52567 19.1926 9.621C19.1926 9.71633 19.1926 9.842 19.1926 9.998C19.1926 10.154 19.1969 10.3013 19.2056 10.44C19.2229 10.5787 19.2316 10.6653 19.2316 10.7C19.2489 10.804 19.2576 10.9427 19.2576 11.116C19.2576 11.2807 19.2446 11.4107 19.2186 11.506C19.2013 11.5493 19.1883 11.584 19.1796 11.61C19.1796 11.6273 19.1796 11.649 19.1796 11.675V11.74C19.1883 11.61 19.2056 11.467 19.2316 11.311C19.2663 11.1983 19.2923 11.064 19.3096 10.908C19.3269 10.7433 19.3356 10.5743 19.3356 10.401C19.3356 10.1063 19.3356 9.88967 19.3356 9.751C19.3356 9.61233 19.3009 9.52567 19.2316 9.491ZM22.8976 7.476C22.8976 7.49333 22.8933 7.58433 22.8846 7.749C22.8759 7.905 22.8716 8.061 22.8716 8.217C22.8716 8.373 22.8716 8.529 22.8716 8.685C22.8716 8.83233 22.8716 8.91033 22.8716 8.919C22.8716 8.95367 22.8716 9.023 22.8716 9.127C22.8716 9.22233 22.8716 9.32633 22.8716 9.439C22.8716 9.543 22.8759 9.65133 22.8846 9.764C22.8933 9.87667 22.9019 9.946 22.9106 9.972C22.9193 10.0413 22.9236 10.1367 22.9236 10.258C22.9236 10.3793 22.9236 10.5267 22.9236 10.7V11.259C22.9323 11.1897 22.9366 11.116 22.9366 11.038C22.9366 10.9167 22.9409 10.843 22.9496 10.817V10.128C22.9496 9.98933 22.9453 9.803 22.9366 9.569C22.9366 9.50833 22.9409 9.44333 22.9496 9.374C22.9496 9.322 22.9583 9.26567 22.9756 9.205C22.9929 9.13567 23.0016 9.07933 23.0016 9.036C23.0016 8.984 22.9929 8.82367 22.9756 8.555C22.9583 8.28633 22.9453 7.98733 22.9366 7.658C22.9279 7.28533 22.9236 6.86933 22.9236 6.41C22.9149 6.57467 22.9106 6.73933 22.9106 6.904C22.9106 7.034 22.9063 7.15533 22.8976 7.268C22.8976 7.372 22.8976 7.44133 22.8976 7.476ZM32.3151 16.212H24.0991V0.325999H32.3151V16.212ZM28.1941 5.942C28.4367 5.968 28.6491 6.06333 28.8311 6.228C29.0217 6.384 29.1821 6.579 29.3121 6.813C29.4421 7.03833 29.5417 7.28967 29.6111 7.567C29.6804 7.84433 29.7151 8.11733 29.7151 8.386C29.7151 8.65467 29.6761 8.94067 29.5981 9.244C29.5287 9.53867 29.4247 9.80733 29.2861 10.05C29.1474 10.284 28.9871 10.479 28.8051 10.635C28.6231 10.791 28.4324 10.869 28.2331 10.869C28.0251 10.869 27.7954 10.8257 27.5441 10.739C27.3014 10.6437 27.0717 10.492 26.8551 10.284C26.6471 10.0673 26.4737 9.79 26.3351 9.452C26.1964 9.10533 26.1444 8.68067 26.1791 8.178C26.1964 7.67533 26.3004 7.27667 26.4911 6.982C26.6904 6.67867 26.9027 6.449 27.1281 6.293C27.3621 6.12833 27.5831 6.02433 27.7911 5.981C28.0077 5.93767 28.1421 5.92467 28.1941 5.942ZM29.1301 5.539C28.9221 5.33967 28.7444 5.201 28.5971 5.123C28.4497 5.03633 28.4107 5.06233 28.4801 5.201C28.4801 5.227 28.3847 5.24 28.1941 5.24C28.0121 5.24 27.7824 5.266 27.5051 5.318C27.2364 5.37 26.9634 5.46533 26.6861 5.604C26.4087 5.734 26.1964 5.94633 26.0491 6.241C25.8757 6.53567 25.7371 6.904 25.6331 7.346C25.5377 7.77933 25.4944 8.22567 25.5031 8.685C25.5204 9.14433 25.6027 9.582 25.7501 9.998C25.8974 10.414 26.1357 10.7607 26.4651 11.038C26.8117 11.3067 27.1541 11.4887 27.4921 11.584C27.8301 11.6793 28.1421 11.7053 28.4281 11.662C28.7141 11.61 28.9654 11.4973 29.1821 11.324C29.3987 11.1507 29.5677 10.9557 29.6891 10.739C29.7931 10.5137 29.8927 10.258 29.9881 9.972C30.0834 9.67733 30.1571 9.38267 30.2091 9.088C30.2611 8.78467 30.2827 8.49433 30.2741 8.217C30.2654 7.931 30.2351 7.67533 30.1831 7.45C29.9231 6.60067 29.5721 5.96367 29.1301 5.539ZM31.1971 9.413C31.1624 9.44767 31.1451 9.47367 31.1451 9.491C31.1451 9.53433 31.1494 9.569 31.1581 9.595C31.1667 9.621 31.1927 9.64267 31.2361 9.66L31.1971 9.413ZM29.4681 5.162C29.2687 5.04933 29.0911 4.954 28.9351 4.876C28.7877 4.798 28.6534 4.74167 28.5321 4.707C28.3934 4.66367 28.2634 4.642 28.1421 4.642L28.6231 4.798C28.6491 4.80667 28.7357 4.85867 28.8831 4.954C29.0391 5.04067 29.2037 5.149 29.3771 5.279C29.5591 5.409 29.7281 5.55633 29.8841 5.721C30.0487 5.88567 30.1657 6.059 30.2351 6.241C30.3044 6.423 30.3651 6.63533 30.4171 6.878C30.4777 7.112 30.5254 7.359 30.5601 7.619C30.6034 7.879 30.6337 8.13467 30.6511 8.386C30.6684 8.62867 30.6597 8.84533 30.6251 9.036C30.5644 9.43467 30.4777 9.79433 30.3651 10.115C30.2611 10.4357 30.0357 10.7737 29.6891 11.129C29.5071 11.3023 29.3207 11.4497 29.1301 11.571C28.9481 11.6837 28.7791 11.7747 28.6231 11.844C28.4324 11.9307 28.2547 11.9957 28.0901 12.039C28.3847 11.961 28.6664 11.8613 28.9351 11.74C29.1604 11.636 29.3901 11.4973 29.6241 11.324C29.8667 11.142 30.0617 10.921 30.2091 10.661C30.3564 10.401 30.4647 10.115 30.5341 9.803C30.6121 9.48233 30.6684 9.17467 30.7031 8.88C30.7377 8.58533 30.7507 8.321 30.7421 8.087C30.7421 7.853 30.7377 7.67533 30.7291 7.554C30.7031 7.46733 30.6597 7.32 30.5991 7.112C30.5384 6.89533 30.4561 6.66567 30.3521 6.423C30.2481 6.17167 30.1181 5.93333 29.9621 5.708C29.8147 5.474 29.6501 5.292 29.4681 5.162ZM27.5571 6.423C27.4271 6.49233 27.3014 6.579 27.1801 6.683C27.0674 6.77833 26.9591 6.89967 26.8551 7.047C26.7511 7.19433 26.6687 7.36333 26.6081 7.554C26.4867 7.95267 26.4564 8.37733 26.5171 8.828C26.5777 9.27 26.6687 9.621 26.7901 9.881C26.8594 10.011 26.9461 10.1237 27.0501 10.219C27.1541 10.3143 27.2581 10.388 27.3621 10.44C27.4747 10.492 27.5744 10.531 27.6611 10.557C27.7477 10.583 27.8041 10.5873 27.8301 10.57C27.8561 10.5267 27.8214 10.466 27.7261 10.388C27.6394 10.3013 27.5441 10.2103 27.4401 10.115C27.3881 10.0717 27.3231 10.0197 27.2451 9.959C27.1757 9.89833 27.1021 9.81167 27.0241 9.699C26.9547 9.58633 26.8897 9.43467 26.8291 9.244C26.7771 9.04467 26.7467 8.78033 26.7381 8.451C26.6947 8.139 26.7121 7.853 26.7901 7.593C26.8767 7.333 26.9807 7.12067 27.1021 6.956C27.2407 6.75667 27.3924 6.579 27.5571 6.423ZM40.0323 16.212H31.7903V0.325999H40.0323V16.212ZM34.4163 11.181C34.4336 11.1117 34.4076 11.025 34.3383 10.921C34.269 10.817 34.2256 10.7303 34.2083 10.661C34.2083 10.6177 34.204 10.4963 34.1953 10.297C34.1953 10.0977 34.191 9.87233 34.1823 9.621C34.1736 9.361 34.1693 9.114 34.1693 8.88C34.1693 8.63733 34.1693 8.44233 34.1693 8.295C34.1866 8.04367 34.204 7.84433 34.2213 7.697C34.2473 7.54967 34.2516 7.44133 34.2343 7.372C34.217 7.346 34.178 7.38933 34.1173 7.502C34.0826 7.56267 34.0436 7.619 34.0003 7.671C33.9916 7.541 33.9786 7.411 33.9613 7.281C33.9526 7.177 33.9483 7.07733 33.9483 6.982C33.957 6.878 33.9743 6.813 34.0003 6.787C34.0783 6.735 34.139 6.68733 34.1823 6.644C34.2343 6.592 34.2906 6.58767 34.3513 6.631C34.36 6.63967 34.4163 6.735 34.5203 6.917C34.633 7.09033 34.763 7.30267 34.9103 7.554C35.0663 7.79667 35.231 8.06533 35.4043 8.36C35.5776 8.646 35.738 8.919 35.8853 9.179C36.0326 9.439 36.1583 9.65567 36.2623 9.829C36.375 9.99367 36.44 10.0977 36.4573 10.141L36.9123 10.752C36.921 10.7607 36.934 10.8083 36.9513 10.895C36.9773 10.973 36.999 11.0597 37.0163 11.155C37.0423 11.2503 37.0683 11.3457 37.0943 11.441C37.129 11.5277 37.168 11.5797 37.2113 11.597C37.246 11.623 37.3066 11.6447 37.3933 11.662C37.4886 11.6707 37.5796 11.6707 37.6663 11.662C37.753 11.6447 37.8353 11.6187 37.9133 11.584C37.9913 11.5493 38.0346 11.4887 38.0433 11.402C38.078 11.2373 38.0606 11.038 37.9913 10.804C37.922 10.5613 37.8873 10.154 37.8873 9.582C37.8873 9.31333 37.8916 9.00567 37.9003 8.659C37.9176 8.31233 37.9263 7.97 37.9263 7.632C37.9263 7.294 37.9263 6.995 37.9263 6.735C37.935 6.46633 37.9436 6.28 37.9523 6.176C37.9783 5.95933 38.0086 5.79033 38.0433 5.669C38.0866 5.54767 38.0996 5.45667 38.0823 5.396C38.0563 5.36133 38.039 5.318 38.0303 5.266C38.0303 5.214 38.0173 5.15767 37.9913 5.097C37.9566 5.03633 37.935 4.97567 37.9263 4.915C37.8743 4.98433 37.8266 5.04933 37.7833 5.11C37.688 5.25733 37.6143 5.34833 37.5623 5.383C37.5103 5.40033 37.4453 5.43067 37.3673 5.474C37.298 5.51733 37.259 5.57367 37.2503 5.643C37.2503 5.72967 37.2806 5.88133 37.3413 6.098C37.4106 6.31467 37.4323 6.51833 37.4063 6.709C37.4063 6.787 37.402 6.969 37.3933 7.255C37.3933 7.53233 37.3846 7.83133 37.3673 8.152C37.35 8.47267 37.337 8.77167 37.3283 9.049C37.3196 9.32633 37.3153 9.49967 37.3153 9.569C37.2806 9.69033 37.2546 9.829 37.2373 9.985C37.22 10.141 37.1723 10.245 37.0943 10.297C37.0336 10.3577 36.96 10.3837 36.8733 10.375C36.7953 10.3577 36.726 10.2883 36.6653 10.167C36.596 10.0543 36.5396 9.959 36.4963 9.881C36.453 9.79433 36.4226 9.70333 36.4053 9.608C36.3793 9.51267 36.3576 9.426 36.3403 9.348C36.3316 9.27 36.3533 9.22233 36.4053 9.205C36.44 9.18767 36.4616 9.179 36.4703 9.179C36.479 9.179 36.505 9.166 36.5483 9.14C36.583 9.14 36.6046 9.13567 36.6133 9.127C36.492 8.98833 36.3793 8.854 36.2753 8.724C36.05 8.464 35.9026 8.269 35.8333 8.139C35.79 8.07833 35.7163 7.944 35.6123 7.736C35.517 7.528 35.413 7.307 35.3003 7.073C35.1963 6.839 35.0923 6.618 34.9883 6.41C34.893 6.202 34.8323 6.07633 34.8063 6.033C34.7283 5.93767 34.646 5.786 34.5593 5.578C34.4813 5.37 34.4163 5.24433 34.3643 5.201C34.321 5.16633 34.2993 5.11867 34.2993 5.058C34.2993 4.98867 34.2993 4.941 34.2993 4.915C34.2993 4.88033 34.2906 4.889 34.2733 4.941C34.2646 4.98433 34.2386 5.032 34.1953 5.084C34.1433 5.12733 34.0393 5.188 33.8833 5.266C33.7273 5.344 33.6363 5.422 33.6103 5.5C33.6103 5.552 33.619 5.62133 33.6363 5.708C33.6623 5.786 33.6926 5.86833 33.7273 5.955C33.7706 6.04167 33.8053 6.124 33.8313 6.202C33.8573 6.28 33.8703 6.32767 33.8703 6.345C33.8876 6.43167 33.8703 6.566 33.8183 6.748C33.775 6.93 33.7533 7.073 33.7533 7.177C33.7533 7.29833 33.736 7.42833 33.7013 7.567C33.6666 7.697 33.6493 7.80967 33.6493 7.905C33.6493 7.94833 33.6406 8.126 33.6233 8.438C33.6146 8.74133 33.6103 9.07933 33.6103 9.452C33.6103 9.82467 33.6103 10.1757 33.6103 10.505C33.6103 10.8343 33.6233 11.0423 33.6493 11.129C33.7533 11.4583 33.8833 11.6143 34.0393 11.597C34.1086 11.5623 34.1823 11.4973 34.2603 11.402C34.347 11.298 34.399 11.2243 34.4163 11.181ZM34.2863 11.675C34.269 11.6923 34.2646 11.7313 34.2733 11.792C34.282 11.844 34.2906 11.857 34.2993 11.831C34.2993 11.805 34.3166 11.7747 34.3513 11.74C34.3946 11.6967 34.4293 11.649 34.4553 11.597C34.5073 11.545 34.5593 11.48 34.6113 11.402L34.4943 11.519C34.399 11.571 34.3296 11.623 34.2863 11.675ZM34.6633 11.207V10.141C34.6633 9.86367 34.6633 9.608 34.6633 9.374C34.6633 9.14 34.672 9.00567 34.6893 8.971C34.6893 8.93633 34.6763 8.86267 34.6503 8.75C34.6243 8.63733 34.6026 8.52033 34.5853 8.399C34.5333 8.269 34.49 8.126 34.4553 7.97C34.49 8.542 34.5246 9.062 34.5593 9.53C34.5766 9.72933 34.5853 9.933 34.5853 10.141C34.594 10.3403 34.607 10.518 34.6243 10.674C34.6416 10.8213 34.6503 10.9427 34.6503 11.038C34.659 11.1333 34.6633 11.1897 34.6633 11.207ZM36.6133 8.451C36.5093 8.243 36.4053 8.03067 36.3013 7.814C36.206 7.62333 36.1063 7.43267 36.0023 7.242C35.907 7.05133 35.8203 6.891 35.7423 6.761C35.6643 6.631 35.5776 6.47933 35.4823 6.306C35.3956 6.124 35.3046 5.95067 35.2093 5.786C35.1226 5.62133 35.0403 5.474 34.9623 5.344C34.8843 5.214 34.815 5.13167 34.7543 5.097C34.6936 5.06233 34.6416 5.032 34.5983 5.006C34.555 4.97133 34.5073 4.941 34.4553 4.915C34.3946 4.88033 34.3426 4.85867 34.2993 4.85C34.4726 5.04933 34.6416 5.266 34.8063 5.5C34.9623 5.71667 35.1313 5.97233 35.3133 6.267C35.4953 6.56167 35.6773 6.87367 35.8593 7.203C36.0413 7.54967 36.18 7.80533 36.2753 7.97C36.3793 8.13467 36.4486 8.256 36.4833 8.334C36.5613 8.412 36.6046 8.451 36.6133 8.451ZM38.3033 11.012V11.298C38.3206 11.2893 38.3293 11.259 38.3293 11.207C38.3293 11.1723 38.3293 11.142 38.3293 11.116C38.3293 11.09 38.3206 11.0553 38.3033 11.012ZM37.4453 12.013H37.5363C37.5536 12.013 37.61 11.9957 37.7053 11.961C37.74 11.961 37.7746 11.9523 37.8093 11.935C37.844 11.909 37.8873 11.8787 37.9393 11.844C38 11.8093 38.052 11.7703 38.0953 11.727L37.4453 12.013ZM34.8453 9.387L34.9753 9.283L34.9493 9.179L34.8453 9.387ZM38.2513 10.752V10.7C38.2513 10.6913 38.2556 10.674 38.2643 10.648C38.273 10.622 38.2773 10.5917 38.2773 10.557C38.2773 10.531 38.2946 10.4963 38.3293 10.453C38.364 10.4097 38.3813 10.362 38.3813 10.31V7.892C38.3813 7.18133 38.3856 6.384 38.3943 5.5C38.3596 5.552 38.3336 5.66467 38.3163 5.838C38.3076 6.00267 38.2946 6.21067 38.2773 6.462C38.26 6.70467 38.2513 6.982 38.2513 7.294C38.2513 7.606 38.2513 7.92667 38.2513 8.256V10.752ZM47.7272 16.212H39.4852V0.325999H47.7272V16.212ZM44.4642 6.163C44.5682 6.163 44.7025 6.176 44.8672 6.202C45.0405 6.228 45.1922 6.228 45.3222 6.202C45.4695 6.19333 45.5692 6.14567 45.6212 6.059C45.6818 5.96367 45.7208 5.87267 45.7382 5.786C45.7555 5.69067 45.7252 5.56933 45.6472 5.422C45.5778 5.27467 45.4998 5.18367 45.4132 5.149C45.3525 5.11433 45.2615 5.11 45.1402 5.136C45.0188 5.15333 44.9235 5.18367 44.8542 5.227C44.8022 5.253 44.7242 5.27467 44.6202 5.292C44.5162 5.30933 44.4078 5.32667 44.2952 5.344C44.1825 5.36133 44.0655 5.37433 43.9442 5.383C43.8315 5.39167 43.7448 5.396 43.6842 5.396C43.6235 5.396 43.4978 5.39167 43.3072 5.383C43.1252 5.37433 42.9258 5.36567 42.7092 5.357C42.4925 5.34833 42.2932 5.34833 42.1112 5.357C41.9292 5.36567 41.8078 5.383 41.7472 5.409C41.6865 5.45233 41.6345 5.54767 41.5912 5.695C41.5565 5.84233 41.5262 6.01133 41.5002 6.202C41.4828 6.384 41.4698 6.56167 41.4612 6.735C41.4525 6.89967 41.4482 7.02967 41.4482 7.125C41.4482 7.22033 41.4568 7.346 41.4742 7.502C41.4915 7.64933 41.5045 7.79233 41.5132 7.931C41.5305 8.06967 41.5435 8.19967 41.5522 8.321C41.5608 8.44233 41.5565 8.52467 41.5392 8.568C41.5218 8.63733 41.4958 8.763 41.4612 8.945C41.4265 9.11833 41.4092 9.283 41.4092 9.439C41.4092 9.50833 41.4135 9.64267 41.4222 9.842C41.4395 10.0413 41.4568 10.2493 41.4742 10.466C41.5002 10.674 41.5218 10.869 41.5392 11.051C41.5565 11.2243 41.5652 11.3153 41.5652 11.324C41.5652 11.3673 41.5955 11.4453 41.6562 11.558C41.7168 11.6707 41.7948 11.74 41.8902 11.766C41.9335 11.766 42.0765 11.7703 42.3192 11.779C42.5705 11.779 42.8435 11.779 43.1382 11.779C43.4415 11.779 43.7188 11.779 43.9702 11.779C44.2302 11.779 44.3775 11.779 44.4122 11.779C44.4555 11.779 44.5292 11.792 44.6332 11.818C44.7458 11.844 44.8585 11.87 44.9712 11.896C45.0925 11.9133 45.1965 11.9307 45.2832 11.948C45.3698 11.9567 45.4392 11.961 45.4912 11.961C45.5692 11.961 45.6732 11.9177 45.8032 11.831C45.9418 11.7357 46.0198 11.636 46.0372 11.532C46.0372 11.428 46.0198 11.2937 45.9852 11.129C45.9592 10.9557 45.8855 10.856 45.7642 10.83C45.6602 10.7953 45.4825 10.8257 45.2312 10.921C44.9798 11.0163 44.7805 11.0727 44.6332 11.09C44.5638 11.116 44.4338 11.1203 44.2432 11.103C44.0612 11.0857 43.8662 11.064 43.6582 11.038C43.4502 11.012 43.2595 10.9903 43.0862 10.973C42.9128 10.9557 42.8002 10.947 42.7482 10.947C42.6788 10.947 42.5705 10.9687 42.4232 11.012C42.2845 11.0467 42.1892 11.0423 42.1372 10.999C42.0765 10.9643 42.0635 10.895 42.0982 10.791C42.1328 10.6783 42.1502 10.6047 42.1502 10.57C42.1502 10.544 42.1458 10.492 42.1372 10.414C42.1372 10.3273 42.1198 10.2407 42.0852 10.154C42.0678 10.1367 42.0548 10.0587 42.0462 9.92C42.0462 9.77267 42.0505 9.62967 42.0592 9.491C42.0765 9.34367 42.0938 9.20933 42.1112 9.088C42.1285 8.96667 42.1545 8.90167 42.1892 8.893C42.2325 8.84967 42.3018 8.841 42.3972 8.867C42.4925 8.893 42.5748 8.88867 42.6442 8.854C42.6702 8.854 42.7482 8.84967 42.8782 8.841C43.0082 8.83233 43.1468 8.828 43.2942 8.828C43.4415 8.828 43.5758 8.828 43.6972 8.828C43.8272 8.828 43.9182 8.83667 43.9702 8.854C44.0395 8.88867 44.1002 8.919 44.1522 8.945C44.2042 8.96233 44.3125 8.95367 44.4772 8.919C44.6592 8.90167 44.7675 8.841 44.8022 8.737C44.8368 8.633 44.8585 8.49867 44.8672 8.334C44.8932 8.16067 44.8498 8.05667 44.7372 8.022C44.6245 7.97867 44.5292 7.93533 44.4512 7.892C44.3558 7.87467 44.2345 7.89633 44.0872 7.957C43.9398 8.009 43.8228 8.04367 43.7362 8.061C43.6928 8.061 43.6192 8.061 43.5152 8.061C43.4198 8.061 43.3202 8.05667 43.2162 8.048C43.1208 8.03067 43.0255 8.01767 42.9302 8.009C42.8435 7.99167 42.7785 7.983 42.7352 7.983C42.6832 8.009 42.6182 8.022 42.5402 8.022C42.4708 8.022 42.3928 8.02633 42.3062 8.035C42.2368 8.05233 42.1545 8.061 42.0592 8.061V7.216C42.0592 6.99933 42.0592 6.8 42.0592 6.618C42.0592 6.42733 42.0678 6.306 42.0852 6.254C42.4838 6.24533 42.8522 6.228 43.1902 6.202C43.4762 6.19333 43.7448 6.18467 43.9962 6.176C44.2475 6.16733 44.4035 6.163 44.4642 6.163ZM43.6192 6.501H42.3842C42.3668 6.631 42.3582 6.748 42.3582 6.852V7.294C42.3582 7.41533 42.3538 7.49333 42.3452 7.528C42.3192 7.57133 42.3018 7.61033 42.2932 7.645C42.5272 7.645 42.7308 7.64067 42.9042 7.632C43.0688 7.606 43.2118 7.593 43.3332 7.593C43.4632 7.593 43.5455 7.58867 43.5802 7.58C43.5888 7.58 43.5542 7.58 43.4762 7.58C43.4068 7.58 43.3202 7.57133 43.2162 7.554C43.1208 7.53667 43.0212 7.51933 42.9172 7.502C42.8218 7.48467 42.7655 7.43267 42.7482 7.346C42.7048 7.20733 42.6788 7.073 42.6702 6.943C42.6615 6.80433 42.6832 6.722 42.7352 6.696C42.7612 6.67 42.8175 6.65267 42.9042 6.644C42.9995 6.63533 43.0992 6.61367 43.2032 6.579C43.3245 6.553 43.4632 6.527 43.6192 6.501ZM44.3082 7.567L44.6722 7.814C44.6028 7.72733 44.5335 7.66667 44.4642 7.632C44.4035 7.59733 44.3515 7.57567 44.3082 7.567ZM42.6832 9.296C42.6918 9.296 42.7438 9.29167 42.8392 9.283C42.9432 9.27433 43.0515 9.26133 43.1642 9.244C43.2855 9.22667 43.3852 9.218 43.4632 9.218C43.5498 9.20933 43.5888 9.205 43.5802 9.205C43.5368 9.17033 43.4588 9.16167 43.3462 9.179C43.2422 9.18767 43.1338 9.20067 43.0212 9.218C42.9085 9.23533 42.8175 9.257 42.7482 9.283C42.6875 9.30033 42.6658 9.30467 42.6832 9.296ZM42.3582 9.14C42.3582 9.18333 42.3625 9.27433 42.3712 9.413C42.3798 9.543 42.3928 9.69033 42.4102 9.855C42.4275 10.0457 42.4405 10.245 42.4492 10.453L42.7352 10.401C42.7005 10.453 42.6745 10.479 42.6572 10.479C42.6225 10.479 42.6008 10.4573 42.5922 10.414C42.5922 10.3707 42.5878 10.2753 42.5792 10.128C42.5532 9.972 42.5315 9.83767 42.5142 9.725C42.5055 9.60367 42.4838 9.49533 42.4492 9.4C42.4232 9.31333 42.3928 9.22667 42.3582 9.14ZM55.5484 16.212H47.3064V0.325999H55.5484V16.212Z" fill="black"/>
</svg>
